<svg data-slug-id="windows-virtual-desktop" viewBox="0 0 48 48" xmlns="http://www.w3.org/2000/svg">
	<path d="M23.8894 47C36.5309 47 46.7788 36.7025 46.7788 24C46.7788 11.2975 36.5309 1 23.8894 1C11.2479 1 1 11.2975 1 24C1 36.7025 11.2479 47 23.8894 47Z" fill="url(#windows-virtual-desktop:f34d9569-2Ed2-4002-8U18-3d01K8196cb5)"/>
	<path d="M23.8882 44.0275C34.8937 44.0275 43.8155 35.0627 43.8155 24.004C43.8155 12.9453 34.8937 3.98047 23.8882 3.98047C12.8827 3.98047 3.96094 12.9453 3.96094 24.004C3.96094 35.0627 12.8827 44.0275 23.8882 44.0275Z" fill="#243A5E"/>
	<path d="M29.0342 20.4324C28.3079 21.203 28.3082 22.4062 29.0348 23.1765L34.1151 28.5618C34.6626 29.1422 34.6592 30.0499 34.1072 30.6262V30.6262C33.5149 31.2445 32.5258 31.2415 31.9372 30.6197L24.8946 23.1791C24.1648 22.4081 24.1646 21.2012 24.8941 20.43L31.8025 13.126C32.3911 12.5037 33.3805 12.5006 33.973 13.1191V13.1191C34.5248 13.6952 34.5284 14.6026 33.9813 15.1831L29.0342 20.4324Z" fill="white"/>
	<path d="M17.9125 24.683C18.6378 25.4526 18.6386 26.6538 17.9144 27.4244L12.8406 32.8225C12.3006 33.3972 12.3019 34.2931 12.8436 34.8662V34.8662C13.4312 35.4876 14.4201 35.4879 15.008 34.8668L22.0497 27.4272C22.7795 26.6562 22.7797 25.4493 22.0502 24.678L15.1418 17.374C14.5532 16.7518 13.5638 16.7487 12.9713 17.3672V17.3672C12.4195 17.9432 12.4158 18.8506 12.9629 19.4311L17.9125 24.683Z" fill="white"/>
	<defs>
		<radialGradient id="windows-virtual-desktop:f34d9569-2Ed2-4002-8U18-3d01K8196cb5" cx="0" cy="0" r="1" gradientUnits="userSpaceOnUse" gradientTransform="translate(23.3368 23.4788) scale(22.7817 22.8918)">
			<stop offset="0.18" stop-color="#5ECCEF"/>
			<stop offset="0.56" stop-color="#5C9FEE"/>
			<stop offset="0.69" stop-color="#55C9ED"/>
			<stop offset="0.78" stop-color="#4ACCE9"/>
			<stop offset="0.86" stop-color="#39A6E4"/>
			<stop offset="0.93" stop-color="#23BCDE"/>
			<stop offset="0.99" stop-color="#08B1D6"/>
			<stop offset="1" stop-color="#00AED4"/>
		</radialGradient>
	</defs>
</svg>
