<svg width="100" height="100" viewBox="0 0 100 100" fill="none" xmlns="http://www.w3.org/2000/svg">
<g clip-path="url(#clip0)">
<path d="M49.1924 96.5204C39.9343 96.5204 30.884 93.7751 23.1862 88.6315C15.4883 83.488 9.48854 76.1772 5.94561 67.6238C2.40267 59.0704 1.47567 49.6585 3.28185 40.5782C5.08802 31.498 9.54624 23.1572 16.0927 16.6107C22.6392 10.0642 30.98 5.60603 40.0602 3.79985C49.1405 1.99368 58.5524 2.92067 67.1058 6.46361C75.6592 10.0065 82.9699 16.0063 88.1135 23.7042C93.257 31.402 96.0024 40.4523 96.0024 49.7104C96.0028 55.8577 94.7924 61.9449 92.4401 67.6243C90.0878 73.3038 86.6398 78.4642 82.293 82.811C77.9462 87.1578 72.7858 90.6058 67.1063 92.9581C61.4269 95.3104 55.3397 96.5208 49.1924 96.5204V96.5204Z" fill="url(#paint0_linear)"/>
<path fill-rule="evenodd" clip-rule="evenodd" d="M95.5402 49.7806C95.5402 58.8588 92.8482 67.7331 87.8046 75.2813C82.761 82.8295 75.5925 88.7126 67.2053 92.1867C58.8182 95.6608 49.5892 96.5697 40.6855 94.7987C31.7818 93.0276 23.6032 88.6561 17.184 82.2368C10.7647 75.8176 6.39317 67.639 4.62211 58.7353C2.85105 49.8315 3.76002 40.6026 7.23408 32.2155C10.7081 23.8283 16.5913 16.6597 24.1395 11.6162C31.6877 6.57261 40.562 3.88063 49.6402 3.88063C55.6678 3.8806 61.6365 5.06783 67.2053 7.37451C72.7742 9.68119 77.8342 13.0622 82.0964 17.3244C86.3586 21.5866 89.7396 26.6466 92.0463 32.2154C94.3529 37.7843 95.5402 43.7529 95.5402 49.7806V49.7806ZM49.6402 0.140625C59.458 0.140625 69.0554 3.05196 77.2187 8.50647C85.3819 13.961 91.7444 21.7137 95.5015 30.7842C99.2587 39.8547 100.242 49.8357 98.3263 59.4649C96.411 69.0941 91.6832 77.9391 84.7409 84.8814C77.7987 91.8237 68.9537 96.5514 59.3244 98.4668C49.6952 100.382 39.7143 99.3991 30.6437 95.642C21.5732 91.8849 13.8205 85.5224 8.366 77.3591C2.91149 69.1959 0.000152951 59.5985 0.000152951 49.7806C-0.00063515 43.2616 1.2828 36.8062 3.77717 30.7833C6.27153 24.7603 9.92796 19.2877 14.5376 14.6781C19.1473 10.0684 24.6199 6.412 30.6428 3.91764C36.6658 1.42328 43.1211 0.139837 49.6402 0.140625V0.140625Z" fill="#F2F1F0"/>
<path fill-rule="evenodd" clip-rule="evenodd" d="M92.2819 49.7089C92.2819 58.2313 89.7547 66.5623 85.0199 73.6485C80.2851 80.7346 73.5554 86.2575 65.6817 89.5189C57.8081 92.7803 49.1441 93.6336 40.7855 91.971C32.4268 90.3083 24.7489 86.2044 18.7227 80.1782C12.6964 74.1519 8.59251 66.474 6.92987 58.1154C5.26723 49.7567 6.12056 41.0928 9.38194 33.2191C12.6433 25.3454 18.1663 18.6157 25.2524 13.8809C32.3385 9.14612 40.6695 6.61894 49.1919 6.61894C54.8507 6.61859 60.4541 7.73291 65.6821 9.89827C70.9102 12.0636 75.6606 15.2376 79.6619 19.2389C83.6632 23.2403 86.8372 27.9906 89.0026 33.2187C91.1679 38.4468 92.2823 44.0502 92.2819 49.7089V49.7089ZM49.1919 2.87894C58.454 2.87894 67.5081 5.62547 75.2093 10.7712C82.9104 15.917 88.9127 23.2308 92.4572 31.7879C96.0016 40.3449 96.929 49.7609 95.1221 58.845C93.3151 67.9291 88.855 76.2735 82.3057 82.8227C75.7564 89.372 67.4121 93.8322 58.328 95.6391C49.2439 97.4461 39.8279 96.5187 31.2708 92.9742C22.7138 89.4298 15.3999 83.4274 10.2542 75.7263C5.10844 68.0251 2.36191 58.971 2.36191 49.7089C2.3631 37.2892 7.29734 25.3785 16.0794 16.5964C24.8615 7.81435 36.7722 2.8801 49.1919 2.87891V2.87894Z" fill="#0078D4"/>
<path d="M58.4414 36.9746H63.281C65.8578 36.9746 67.942 42.7455 67.942 49.8435V50.0198C67.9054 57.0662 65.832 62.7102 63.281 62.7102H58.4414C61.0225 62.7102 63.1024 56.9522 63.1024 49.8413C63.1024 42.7305 61.0182 36.9746 58.4414 36.9746ZM24.7061 40.7408C24.6416 40.5473 24.5555 40.3537 24.4695 40.1601C23.6522 38.1813 22.5767 36.9768 21.3937 36.9768H16.5542C17.7372 36.9768 18.8126 38.1813 19.63 40.1601C20.7525 43.2623 21.2921 46.5452 21.2216 49.8435C21.3022 53.141 20.7623 56.4244 19.63 59.5225C18.8127 61.5229 17.7372 62.7274 16.5542 62.7274H21.3937C22.5767 62.7274 23.6307 61.5444 24.448 59.5655C25.571 56.5092 26.118 53.2712 26.0612 50.0155V49.8435C26.1149 46.7553 25.657 43.6795 24.7061 40.7408V40.7408Z" fill="url(#paint1_linear)"/>
<path d="M63.111 49.8435C63.111 56.963 61.0246 62.7274 58.4435 62.7274C57.2605 62.7274 56.1851 61.5229 55.3677 59.5225H58.4435C60.0567 59.5225 61.3473 55.1992 61.3473 49.8435C61.3473 44.4877 60.0567 40.1644 58.4435 40.1644H55.3678C56.1851 38.1856 57.2606 36.9811 58.4436 36.9811C61.0247 36.9768 63.111 42.7455 63.111 49.8435ZM16.5628 36.9746C13.9838 36.9746 11.8996 42.7326 11.8996 49.8435C11.8996 56.9543 13.9881 62.7123 16.5628 62.7123C19.1374 62.7123 21.2195 56.9414 21.2195 49.8435C21.2195 42.7455 19.1352 36.9746 16.5628 36.9746Z" fill="#9CEBFF"/>
<path d="M16.5628 40.1641C18.1759 40.1641 19.4686 44.5003 19.4686 49.8431C19.4686 55.186 18.1781 59.5222 16.5628 59.5222C14.9474 59.5222 13.6548 55.1903 13.6548 49.8431C13.6548 44.496 14.956 40.1641 16.5628 40.1641Z" fill="#32BEDD"/>
<path d="M61.3473 49.8431C61.3473 55.1989 60.0568 59.5222 58.4436 59.5222H52.9588V59.5652H24.448C25.571 56.5088 26.118 53.2708 26.0612 50.0152V49.8431C26.1144 46.7564 25.6565 43.6821 24.7061 40.7448C24.6416 40.5512 24.5555 40.3576 24.4695 40.1641H58.4436C60.0568 40.1641 61.3473 44.5046 61.3473 49.8431Z" fill="url(#paint2_linear)"/>
<path d="M76.0851 36.9746H80.9246C83.5014 36.9746 85.5856 42.7455 85.5856 49.8435V50.0198C85.5491 57.0662 83.4756 62.7102 80.9246 62.7102H76.0851C78.6662 62.7102 80.7461 56.9522 80.7461 49.8413C80.7461 42.7305 78.6619 36.9746 76.0851 36.9746ZM42.3497 40.7408C42.2852 40.5473 42.1992 40.3537 42.1131 40.1601C41.2958 38.1813 40.2203 36.9768 39.0374 36.9768H34.1978C35.3808 36.9768 36.4563 38.1813 37.2736 40.1601C38.3961 43.2623 38.9357 46.5452 38.8653 49.8435C38.9459 53.141 38.4059 56.4244 37.2736 59.5225C36.4563 61.5229 35.3808 62.7274 34.1978 62.7274H39.0374C40.2204 62.7274 41.2743 61.5444 42.0916 59.5655C43.2146 56.5092 43.7616 53.2712 43.7048 50.0155V49.8435C43.7585 46.7553 43.3007 43.6795 42.3497 40.7408V40.7408Z" fill="url(#paint3_linear)"/>
<path d="M80.7547 49.8435C80.7547 56.963 78.6683 62.7274 76.0873 62.7274C74.9043 62.7274 73.8288 61.5229 73.0115 59.5225H76.0873C77.7004 59.5225 78.991 55.1992 78.991 49.8435C78.991 44.4877 77.7004 40.1644 76.0873 40.1644H73.0115C73.8288 38.1856 74.9043 36.9811 76.0873 36.9811C78.6683 36.9768 80.7547 42.7455 80.7547 49.8435ZM34.2064 36.9746C31.6275 36.9746 29.5433 42.7326 29.5433 49.8435C29.5433 56.9543 31.6318 62.7123 34.2064 62.7123C36.7811 62.7123 38.8631 56.9414 38.8631 49.8435C38.8631 42.7455 36.7789 36.9746 34.2064 36.9746Z" fill="#9CEBFF"/>
<path d="M32.4513 40.1641C34.0645 40.1641 35.3571 44.5003 35.3571 49.8431C35.3571 55.186 34.0666 59.5222 32.4513 59.5222C30.8359 59.5222 29.5433 55.1903 29.5433 49.8431C29.5433 44.496 30.8446 40.1641 32.4513 40.1641Z" fill="#32BEDD"/>
<path d="M78.991 49.8431C78.991 55.1989 77.7005 59.5222 76.0873 59.5222H70.6025V59.5652H42.0916C43.2147 56.5088 43.7616 53.2708 43.7048 50.0152V49.8431C43.7581 46.7564 43.3002 43.6821 42.3498 40.7448C42.2852 40.5512 42.1992 40.3576 42.1132 40.1641H76.0873C77.7004 40.1641 78.991 44.5046 78.991 49.8431Z" fill="url(#paint4_linear)"/>
<path d="M62.5117 74.0312V78.8708C62.5117 81.4476 56.7409 83.5318 49.6429 83.5318H49.4665C42.4202 83.4952 36.7762 81.4218 36.7762 78.8708V74.0312C36.7762 76.6123 42.5342 78.6923 49.645 78.6923C56.7559 78.6923 62.5117 76.608 62.5117 74.0312Z" fill="url(#paint5_linear)"/>
<path d="M49.6429 78.7003C42.5234 78.7003 36.759 76.6139 36.759 74.0328C36.759 72.8498 37.9635 71.7744 39.9638 70.957V74.0328C39.9638 75.646 44.2871 76.9366 49.6429 76.9366C54.9986 76.9366 59.3219 75.646 59.3219 74.0328V70.957C61.3008 71.7744 62.5053 72.8498 62.5053 74.0328C62.5096 76.6139 56.7409 78.7003 49.6429 78.7003Z" fill="#9CEBFF"/>
<path d="M59.3219 59.1348V74.0337C59.3219 75.6469 54.9814 76.9374 49.6429 76.9374C44.2871 76.9374 39.9638 75.6469 39.9638 74.0337V68.5489H39.9208V59.1778L59.3219 59.1348Z" fill="url(#paint6_linear)"/>
<path opacity="0.2" d="M28.2201 68.2015H71.0591C71.2842 68.2008 71.4999 68.1111 71.659 67.952C71.8182 67.7928 71.9079 67.5771 71.9085 67.3521V33.9062H27.3707V67.3521C27.3714 67.5771 27.4611 67.7928 27.6202 67.952C27.7794 68.1111 27.995 68.2008 28.2201 68.2015V68.2015Z" fill="#003067"/>
<path d="M28.2201 66.4535H71.0591C71.2842 66.4528 71.4999 66.3631 71.659 66.204C71.8182 66.0448 71.9079 65.8291 71.9085 65.604V32.1582H27.3707V65.604C27.3713 65.8291 27.461 66.0448 27.6202 66.2039C27.7794 66.3631 27.995 66.4528 28.2201 66.4535V66.4535Z" fill="#F2F2F2"/>
<path d="M27.3707 35.8603H71.9085V31.868C71.9087 31.7824 71.8921 31.6977 71.8594 31.6185C71.8268 31.5394 71.7788 31.4676 71.7183 31.407C71.6578 31.3465 71.5859 31.2986 71.5068 31.2659C71.4277 31.2333 71.3429 31.2166 71.2573 31.2168H28.0219C27.9363 31.2166 27.8516 31.2333 27.7724 31.2659C27.6933 31.2986 27.6215 31.3465 27.5609 31.407C27.5004 31.4675 27.4525 31.5394 27.4198 31.6185C27.3872 31.6977 27.3705 31.7824 27.3707 31.868V35.8603Z" fill="#092E4C"/>
<path d="M30.7969 34.7639C31.0202 34.7632 31.2382 34.6962 31.4235 34.5716C31.6088 34.447 31.7529 34.2702 31.8377 34.0636C31.9225 33.8571 31.9442 33.63 31.8999 33.4111C31.8557 33.1922 31.7475 32.9914 31.5891 32.834C31.4307 32.6766 31.2292 32.5697 31.0101 32.5269C30.7909 32.484 30.564 32.5071 30.358 32.5932C30.1519 32.6793 29.9761 32.8245 29.8526 33.0106C29.7291 33.1966 29.6636 33.4151 29.6643 33.6384C29.6631 33.7872 29.6916 33.9346 29.7482 34.0722C29.8048 34.2097 29.8883 34.3346 29.9938 34.4394C30.0993 34.5443 30.2247 34.627 30.3626 34.6827C30.5005 34.7384 30.6481 34.766 30.7969 34.7639V34.7639Z" fill="#50E6FF"/>
<path d="M67.9606 38.7344H31.3101C30.8272 38.7344 30.4357 39.1258 30.4357 39.6087V62.3923C30.4357 62.8752 30.8272 63.2667 31.3101 63.2667H67.9606C68.4435 63.2667 68.835 62.8752 68.835 62.3923V39.6087C68.835 39.1258 68.4435 38.7344 67.9606 38.7344Z" fill="#E8E8E8"/>
<path d="M56.7721 41.7051H42.5083C41.2838 41.7051 40.2913 42.6977 40.2913 43.9221V58.1859C40.2913 59.4103 41.2838 60.4029 42.5083 60.4029H56.7721C57.9965 60.4029 58.9891 59.4103 58.9891 58.1859V43.9221C58.9891 42.6977 57.9965 41.7051 56.7721 41.7051Z" fill="white"/>
<path d="M43.6412 51.0473L44.0549 50.6348L47.3164 53.9055C47.3338 53.9229 47.3475 53.9436 47.3569 53.9663C47.3663 53.989 47.3711 54.0134 47.3711 54.0379C47.371 54.0625 47.3661 54.0869 47.3567 54.1095C47.3473 54.1322 47.3335 54.1528 47.3161 54.1702L46.9024 54.5827C46.885 54.6001 46.8643 54.6138 46.8416 54.6232C46.8189 54.6326 46.7946 54.6374 46.77 54.6373C46.7454 54.6373 46.7211 54.6324 46.6984 54.623C46.6757 54.6135 46.6551 54.5997 46.6377 54.5823L43.6405 51.5766C43.6058 51.5418 43.5783 51.5005 43.5595 51.455C43.5408 51.4096 43.5312 51.3609 43.5312 51.3118C43.5313 51.2626 43.541 51.214 43.5599 51.1686C43.5788 51.1232 43.6064 51.082 43.6412 51.0473Z" fill="url(#paint7_linear)"/>
<path d="M44.0505 51.9909L43.6375 51.5767C43.5674 51.5064 43.5281 51.4112 43.5283 51.3119C43.5284 51.2127 43.568 51.1175 43.6383 51.0474L46.6924 48.0019C46.7276 47.9668 46.7752 47.9472 46.8248 47.9473C46.8744 47.9473 46.922 47.9671 46.9571 48.0023L47.3706 48.4169C47.3879 48.4343 47.4017 48.455 47.411 48.4777C47.4204 48.5004 47.4252 48.5247 47.4252 48.5493C47.4251 48.5739 47.4203 48.5982 47.4108 48.6209C47.4014 48.6436 47.3876 48.6642 47.3702 48.6816L44.051 51.9914L44.0505 51.9909Z" fill="#50E6FF"/>
<path d="M52.4382 54.5832L52.024 54.1702C52.0066 54.1528 51.9928 54.1322 51.9833 54.1095C51.9739 54.0868 51.969 54.0625 51.969 54.0379C51.969 54.0134 51.9738 53.989 51.9831 53.9663C51.9925 53.9436 52.0063 53.9229 52.0236 53.9055L55.2852 50.6348L55.6993 51.0478C55.7696 51.1179 55.8092 51.213 55.8093 51.3123C55.8095 51.4115 55.7702 51.5068 55.7001 51.5771L52.7028 54.5828C52.6678 54.618 52.6202 54.6377 52.5706 54.6378C52.5209 54.6379 52.4733 54.6182 52.4382 54.5832V54.5832Z" fill="url(#paint8_linear)"/>
<path d="M51.9654 48.4184L52.3784 48.0042C52.4134 47.9691 52.461 47.9493 52.5106 47.9492C52.5603 47.9491 52.6079 47.9688 52.643 48.0038L55.6972 51.0494C55.732 51.0841 55.7596 51.1253 55.7785 51.1707C55.7974 51.2161 55.8071 51.2647 55.8072 51.3139C55.8073 51.363 55.7976 51.4117 55.7789 51.4571C55.7602 51.5026 55.7327 51.5439 55.6979 51.5787L55.2849 51.9929L51.9677 48.685C51.9503 48.6677 51.9365 48.6471 51.9271 48.6244C51.9176 48.6017 51.9128 48.5773 51.9127 48.5528C51.9127 48.5282 51.9175 48.5039 51.9269 48.4811C51.9362 48.4584 51.95 48.4378 51.9673 48.4204L51.9654 48.4184Z" fill="#50E6FF"/>
<path d="M50.6158 46.8515L47.9215 55.2676C47.899 55.3377 47.9377 55.4127 48.0078 55.4352L48.6687 55.6468C48.7388 55.6692 48.8138 55.6306 48.8363 55.5605L51.5306 47.1443C51.5531 47.0742 51.5144 46.9992 51.4443 46.9768L50.7834 46.7652C50.7133 46.7427 50.6383 46.7814 50.6158 46.8515Z" fill="url(#paint9_linear)"/>
<path opacity="0.2" d="M34.148 38.2643L49.635 47.2423L65.123 38.2643V35.8613H34.148V38.2643Z" fill="#767676"/>
<path opacity="0.2" d="M65.1231 31.2168H34.1476V35.8603H65.1231V31.2168Z" fill="#020C13"/>
<path d="M49.64 13.6543L36.152 21.4733V37.1113L49.64 44.9303L63.127 37.1113V21.4733L49.64 13.6543Z" fill="url(#paint10_linear)"/>
<g opacity="0.7">
<path opacity="0.7" d="M63.03 21.5469V37.0619L49.64 44.8079V29.2919L63.03 21.5469Z" fill="#156AB3" stroke="#0078D4" stroke-width="0.12217" stroke-linejoin="round"/>
<path opacity="0.7" d="M63.03 21.5464L49.64 29.2914L36.25 21.5464L49.64 13.7754L63.03 21.5464Z" fill="#1D4A79" stroke="#0078D4" stroke-width="0.12217" stroke-linejoin="round"/>
<path opacity="0.7" d="M49.64 29.2919V44.8079L36.25 37.0619V21.5469L49.64 29.2919Z" fill="#185A97" stroke="#0078D4" stroke-width="0.12217" stroke-linejoin="round"/>
<path opacity="0.7" d="M36.25 37.061L49.64 29.291V44.807L36.25 37.061Z" fill="#1D4A79" stroke="#0078D4" stroke-width="0.12217" stroke-linejoin="round"/>
<path opacity="0.7" d="M63.03 37.061L49.64 29.291V44.807L63.03 37.061Z" fill="#185A97" stroke="#0078D4" stroke-width="0.12217" stroke-linejoin="round"/>
</g>
<path d="M55.3817 29.806C55.2606 29.7857 55.1378 29.7775 55.0152 29.7816H47.4161L49.6396 24.1861C49.7194 24.2098 49.8012 24.2261 49.8839 24.235C49.9341 24.2389 49.9844 24.2305 50.0306 24.2106L52.3763 23.4531C52.4599 23.4219 52.5352 23.3717 52.5962 23.3065L54.1355 21.5961L54.0867 20.9119L53.7201 20.5943L51.9364 22.5735L49.9817 23.2088L48.5645 21.9382L48.9799 19.9345L50.7636 17.9554L50.3971 17.6133L49.7129 17.6622L48.1735 19.3726C48.1236 19.4404 48.0826 19.5143 48.0514 19.5925L47.5383 21.987C47.5247 22.0705 47.5308 22.156 47.5563 22.2366C47.5818 22.3172 47.6258 22.3908 47.6849 22.4513C47.6849 22.4513 47.4405 22.5246 47.3916 22.5979L41.3564 30.3924C40.9398 30.6761 40.592 31.0493 40.3383 31.4848C40.0847 31.9203 39.9316 32.4069 39.8903 32.9092C39.8196 33.7864 40.09 34.6572 40.6454 35.3399C41.2007 36.0227 41.998 36.4649 42.8713 36.5743L54.3554 38.5047V38.4802C54.4776 38.5047 54.5754 38.5291 54.6975 38.5535C54.8197 38.5535 54.9419 38.578 55.064 38.578C56.166 38.5777 57.2276 38.1628 58.0379 37.4159C58.8482 36.669 59.3479 35.6447 59.4378 34.5463C59.5207 33.3816 59.1415 32.2311 58.3824 31.3439C57.6232 30.4567 56.5452 29.9042 55.3817 29.806V29.806Z" fill="#1D4A79"/>
<path opacity="0.3" d="M43.2867 36.3304C43.2867 36.3304 40.3301 35.4996 40.3301 32.8607C40.3301 30.6127 43.3844 30.0996 43.3844 30.0996L55.2351 30.2706C55.2351 30.2706 59.0224 30.7104 59.0224 34.1801C59.0224 37.6009 55.2351 38.0652 55.2351 38.0652L43.2867 36.3304Z" fill="white"/>
<path opacity="0.3" d="M43.2867 36.1338C44.906 36.1338 46.2188 34.821 46.2188 33.2017C46.2188 31.5823 44.906 30.2695 43.2867 30.2695C41.6673 30.2695 40.3546 31.5823 40.3546 33.2017C40.3546 34.821 41.6673 36.1338 43.2867 36.1338Z" fill="white"/>
<path opacity="0.2" d="M48.369 22.1836L49.737 23.0626L46.854 30.3686L42.285 30.2716L48.369 22.1836Z" fill="white"/>
<path opacity="0.3" d="M54.0378 36.1341H55.9925C56.0366 36.1343 56.08 36.1232 56.1185 36.1018C56.157 36.0804 56.1894 36.0495 56.2125 36.0119L57.1898 34.3015C57.2137 34.2653 57.2265 34.2228 57.2265 34.1794C57.2265 34.1359 57.2137 34.0934 57.1898 34.0572L56.2125 32.3468C56.1894 32.3093 56.157 32.2783 56.1185 32.2569C56.08 32.2355 56.0366 32.2244 55.9925 32.2246H54.0378C53.9937 32.2244 53.9504 32.2355 53.9118 32.2569C53.8733 32.2783 53.841 32.3093 53.8179 32.3468L52.8405 34.0572C52.8166 34.0934 52.8039 34.1359 52.8039 34.1794C52.8039 34.2228 52.8166 34.2653 52.8405 34.3015L53.8179 36.0119C53.841 36.0495 53.8733 36.0804 53.9118 36.1018C53.9504 36.1232 53.9937 36.1343 54.0378 36.1341Z" fill="white"/>
<path d="M43.2867 36.1338C44.906 36.1338 46.2188 34.821 46.2188 33.2017C46.2188 31.5823 44.906 30.2695 43.2867 30.2695C41.6673 30.2695 40.3546 31.5823 40.3546 33.2017C40.3546 34.821 41.6673 36.1338 43.2867 36.1338Z" stroke="white" stroke-width="0.97737" stroke-linejoin="round"/>
<path d="M42.798 34.1793H43.7754C43.8242 34.1793 43.8487 34.1549 43.8731 34.106L44.3618 33.2508C44.3737 33.2327 44.3801 33.2115 44.3801 33.1898C44.3801 33.168 44.3737 33.1468 44.3618 33.1287L43.8731 32.2735C43.8731 32.249 43.8242 32.2246 43.7754 32.2246H42.798C42.7491 32.2246 42.7247 32.249 42.7002 32.2979L42.2116 33.1531C42.1996 33.1712 42.1932 33.1925 42.1932 33.2142C42.1932 33.2359 42.1996 33.2571 42.2116 33.2753L42.7002 34.1305C42.7002 34.1549 42.7491 34.1793 42.798 34.1793Z" fill="white"/>
<path d="M55.0152 29.7823V30.7596H55.3084C55.756 30.7927 56.1922 30.9158 56.5911 31.1216C56.99 31.3273 57.3432 31.6114 57.6296 31.9569C58.054 32.4553 58.3267 33.0648 58.4153 33.7134C58.5039 34.3619 58.4048 35.0223 58.1297 35.6162C57.8545 36.2102 57.415 36.7128 56.863 37.0646C56.311 37.4164 55.6697 37.6027 55.0152 37.6012H54.722C54.2744 37.5681 53.8381 37.445 53.4393 37.2393C53.0404 37.0336 52.6872 36.7495 52.4007 36.404C51.9764 35.9056 51.7037 35.296 51.6151 34.6475C51.5265 33.999 51.6256 33.3386 51.9007 32.7447C52.1758 32.1507 52.6154 31.6481 53.1674 31.2963C53.7194 30.9445 54.3606 30.7582 55.0152 30.7596V29.7823H55.0152ZM55.0152 29.7823C53.8805 29.7833 52.7903 30.2234 51.9728 31.0104C51.1554 31.7973 50.6741 32.8701 50.6299 34.0039C50.5857 35.1377 50.9819 36.2446 51.7356 37.0929C52.4893 37.9411 53.542 38.4647 54.6731 38.5542C54.7953 38.5542 54.9175 38.5786 55.0397 38.5786C56.1744 38.5776 57.2646 38.1375 58.0821 37.3505C58.8996 36.5636 59.3808 35.4908 59.4251 34.357C59.4693 33.2232 59.073 32.1162 58.3193 31.268C57.5656 30.4198 56.5129 29.8961 55.3817 29.8067C55.2607 29.7864 55.1379 29.7782 55.0152 29.7823Z" fill="white"/>
<path d="M55.8703 32.7133L56.7255 34.1794L55.8703 35.6454H54.1843L53.3291 34.1794L54.1843 32.7133H55.8703ZM55.9925 32.2246H54.0378C53.9937 32.2244 53.9503 32.2355 53.9118 32.2569C53.8733 32.2783 53.8409 32.3093 53.8179 32.3468L52.8405 34.0572C52.8166 34.0934 52.8038 34.1359 52.8038 34.1794C52.8038 34.2228 52.8166 34.2653 52.8405 34.3015L53.8179 36.0119C53.8409 36.0495 53.8733 36.0804 53.9118 36.1018C53.9503 36.1232 53.9937 36.1343 54.0378 36.1341H55.9925C56.0366 36.1343 56.08 36.1232 56.1185 36.1018C56.157 36.0804 56.1893 36.0495 56.2124 36.0119L57.1898 34.3015C57.2137 34.2653 57.2265 34.2228 57.2265 34.1794C57.2265 34.1359 57.2137 34.0934 57.1898 34.0572L56.2124 32.3468C56.1893 32.3093 56.157 32.2783 56.1185 32.2569C56.08 32.2355 56.0366 32.2244 55.9925 32.2246V32.2246Z" fill="white"/>
<path d="M42.9202 36.1094L54.4043 38.0397" stroke="white" stroke-width="0.97737" stroke-miterlimit="10"/>
<path d="M55.0152 30.2695H43.2867" stroke="white" stroke-width="0.97737" stroke-miterlimit="10"/>
<path d="M41.7229 30.7104L47.807 22.9159C47.924 22.7738 48.0924 22.6839 48.2755 22.6656C48.4586 22.6473 48.6415 22.7021 48.7844 22.8181L49.0776 23.0869C49.1809 23.1745 49.2534 23.2931 49.2842 23.4251C49.315 23.5571 49.3025 23.6955 49.2486 23.8199L46.7074 30.2706" stroke="white" stroke-width="0.97737" stroke-linejoin="round"/>
<path d="M54.16 20.8631L53.7935 20.521L52.0098 22.5002L50.055 23.1355L48.6622 21.8649L49.0776 19.8613L50.8613 17.8821L50.4703 17.5645L49.7862 17.6133L48.2468 19.3237C48.1969 19.3915 48.1559 19.4654 48.1247 19.5436L47.6116 21.9382C47.598 22.0216 47.6041 22.1071 47.6296 22.1878C47.6551 22.2684 47.6991 22.3419 47.7582 22.4024L49.5907 24.0395C49.6797 24.1151 49.7917 24.1582 49.9084 24.1617C49.9585 24.1656 50.0088 24.1572 50.055 24.1373L52.4007 23.3798C52.4843 23.3486 52.5596 23.2984 52.6206 23.2332L54.16 21.5228V20.8631Z" fill="white" stroke="white" stroke-width="0.24434" stroke-miterlimit="10"/>
</g>
<defs>
<linearGradient id="paint0_linear" x1="47.422" y1="-15.0827" x2="51.4048" y2="130.685" gradientUnits="userSpaceOnUse">
<stop stop-color="#00ABDE"/>
<stop offset="1" stop-color="#007ED8"/>
</linearGradient>
<linearGradient id="paint1_linear" x1="42.2481" y1="31.9458" x2="42.2481" y2="61.396" gradientUnits="userSpaceOnUse">
<stop stop-color="#32BEDD"/>
<stop offset="0.067" stop-color="#3DCCE9"/>
<stop offset="0.171" stop-color="#48DBF5"/>
<stop offset="0.295" stop-color="#4EE3FD"/>
<stop offset="0.489" stop-color="#50E6FF"/>
<stop offset="0.703" stop-color="#4EE4FD"/>
<stop offset="0.828" stop-color="#48DBF6"/>
<stop offset="0.929" stop-color="#3DCDEA"/>
<stop offset="1" stop-color="#32BEDD"/>
</linearGradient>
<linearGradient id="paint2_linear" x1="42.8976" y1="37.1141" x2="42.8976" y2="63.7014" gradientUnits="userSpaceOnUse">
<stop stop-color="#198AB3"/>
<stop offset="0.025" stop-color="#1D92B9"/>
<stop offset="0.102" stop-color="#26A5C9"/>
<stop offset="0.192" stop-color="#2CB2D4"/>
<stop offset="0.307" stop-color="#30BADA"/>
<stop offset="0.531" stop-color="#31BCDC"/>
<stop offset="0.656" stop-color="#2EB5D6"/>
<stop offset="0.84" stop-color="#24A1C6"/>
<stop offset="1" stop-color="#198AB3"/>
</linearGradient>
<linearGradient id="paint3_linear" x1="-25870.8" y1="18480.3" x2="-25870.8" y2="17721.9" gradientUnits="userSpaceOnUse">
<stop stop-color="#32BEDD"/>
<stop offset="0.067" stop-color="#3DCCE9"/>
<stop offset="0.171" stop-color="#48DBF5"/>
<stop offset="0.295" stop-color="#4EE3FD"/>
<stop offset="0.489" stop-color="#50E6FF"/>
<stop offset="0.703" stop-color="#4EE4FD"/>
<stop offset="0.828" stop-color="#48DBF6"/>
<stop offset="0.929" stop-color="#3DCDEA"/>
<stop offset="1" stop-color="#32BEDD"/>
</linearGradient>
<linearGradient id="paint4_linear" x1="60.5413" y1="37.1141" x2="60.5413" y2="63.7014" gradientUnits="userSpaceOnUse">
<stop stop-color="#198AB3"/>
<stop offset="0.025" stop-color="#1D92B9"/>
<stop offset="0.102" stop-color="#26A5C9"/>
<stop offset="0.192" stop-color="#2CB2D4"/>
<stop offset="0.307" stop-color="#30BADA"/>
<stop offset="0.531" stop-color="#31BCDC"/>
<stop offset="0.656" stop-color="#2EB5D6"/>
<stop offset="0.84" stop-color="#24A1C6"/>
<stop offset="1" stop-color="#198AB3"/>
</linearGradient>
<linearGradient id="paint5_linear" x1="100.418" y1="-1465.9" x2="380.024" y2="-1465.9" gradientUnits="userSpaceOnUse">
<stop stop-color="#32BEDD"/>
<stop offset="0.067" stop-color="#3DCCE9"/>
<stop offset="0.171" stop-color="#48DBF5"/>
<stop offset="0.295" stop-color="#4EE3FD"/>
<stop offset="0.489" stop-color="#50E6FF"/>
<stop offset="0.703" stop-color="#4EE4FD"/>
<stop offset="0.828" stop-color="#48DBF6"/>
<stop offset="0.929" stop-color="#3DCDEA"/>
<stop offset="1" stop-color="#32BEDD"/>
</linearGradient>
<linearGradient id="paint6_linear" x1="49.6214" y1="56.3361" x2="49.6214" y2="80.7328" gradientUnits="userSpaceOnUse">
<stop stop-color="#198AB3"/>
<stop offset="0.025" stop-color="#1D92B9"/>
<stop offset="0.102" stop-color="#26A5C9"/>
<stop offset="0.192" stop-color="#2CB2D4"/>
<stop offset="0.307" stop-color="#30BADA"/>
<stop offset="0.531" stop-color="#31BCDC"/>
<stop offset="0.656" stop-color="#2EB5D6"/>
<stop offset="0.84" stop-color="#24A1C6"/>
<stop offset="1" stop-color="#198AB3"/>
</linearGradient>
<linearGradient id="paint7_linear" x1="45.516" y1="50.9709" x2="45.3772" y2="54.6121" gradientUnits="userSpaceOnUse">
<stop stop-color="#0078D4"/>
<stop offset="0.325" stop-color="#1B84DC"/>
<stop offset="1" stop-color="#5EA0EF"/>
</linearGradient>
<linearGradient id="paint8_linear" x1="-1342.82" y1="-2091.82" x2="-1343.41" y2="-2077.25" gradientUnits="userSpaceOnUse">
<stop stop-color="#0078D4"/>
<stop offset="0.325" stop-color="#1B84DC"/>
<stop offset="1" stop-color="#5EA0EF"/>
</linearGradient>
<linearGradient id="paint9_linear" x1="-4083.8" y1="32.6762" x2="-4083.55" y2="23.5311" gradientUnits="userSpaceOnUse">
<stop stop-color="#0078D4"/>
<stop offset="0.325" stop-color="#1B84DC"/>
<stop offset="1" stop-color="#5EA0EF"/>
</linearGradient>
<linearGradient id="paint10_linear" x1="49.6396" y1="44.9305" x2="49.6396" y2="13.6546" gradientUnits="userSpaceOnUse">
<stop stop-color="#1D4A79"/>
<stop offset="1" stop-color="#45CAF2"/>
</linearGradient>
<clipPath id="clip0">
<rect width="99.2799" height="99.28" fill="white" transform="translate(0 0.0703125)"/>
</clipPath>
</defs>
</svg>
