<svg width="100" height="100" viewBox="0 0 100 100" fill="none" xmlns="http://www.w3.org/2000/svg">
<g clip-path="url(#clip0)">
<path d="M49.6401 96.4501C40.382 96.4501 31.3317 93.7047 23.6339 88.5612C15.936 83.4176 9.93624 76.1069 6.3933 67.5535C2.85036 59.0001 1.92337 49.5882 3.72954 40.5079C5.53571 31.4277 9.99394 23.0869 16.5404 16.5404C23.0869 9.99394 31.4277 5.53571 40.5079 3.72954C49.5882 1.92337 59.0001 2.85036 67.5535 6.3933C76.1069 9.93624 83.4176 15.936 88.5612 23.6339C93.7047 31.3317 96.4501 40.382 96.4501 49.6401C96.4505 55.7874 95.24 61.8746 92.8878 67.554C90.5355 73.2335 87.0875 78.3939 82.7407 82.7407C78.3939 87.0875 73.2335 90.5355 67.554 92.8878C61.8746 95.24 55.7874 96.4505 49.6401 96.4501V96.4501Z" fill="url(#paint0_linear)"/>
<path fill-rule="evenodd" clip-rule="evenodd" d="M95.54 49.64C95.54 58.7182 92.848 67.5924 87.8045 75.1407C82.7609 82.6889 75.5923 88.572 67.2052 92.0461C58.818 95.5201 49.5891 96.4291 40.6854 94.658C31.7816 92.887 23.603 88.5154 17.1838 82.0962C10.7646 75.677 6.39302 67.4984 4.62196 58.5946C2.85089 49.6909 3.75987 40.462 7.23393 32.0748C10.708 23.6877 16.5911 16.5191 24.1393 11.4755C31.6875 6.43198 40.5618 3.73999 49.64 3.73999C55.6677 3.73997 61.6363 4.92719 67.2052 7.23387C72.774 9.54056 77.834 12.9215 82.0963 17.1837C86.3585 21.446 89.7394 26.5059 92.0461 32.0748C94.3528 37.6436 95.54 43.6123 95.54 49.64V49.64ZM49.64 3.62732e-07C59.4579 3.62732e-07 69.0552 2.91134 77.2185 8.36585C85.3818 13.8204 91.7442 21.5731 95.5014 30.6436C99.2585 39.7141 100.242 49.6951 98.3262 59.3243C96.4108 68.9535 91.6831 77.7985 84.7408 84.7408C77.7985 91.6831 68.9535 96.4108 59.3243 98.3262C49.6951 100.242 39.7141 99.2585 30.6436 95.5014C21.5731 91.7442 13.8204 85.3818 8.36584 77.2185C2.91133 69.0552 -1.61629e-06 59.4579 3.61524e-07 49.64C-0.000786426 43.1209 1.28265 36.6656 3.77702 30.6427C6.27138 24.6197 9.92781 19.1471 14.5375 14.5375C19.1471 9.9278 24.6197 6.27138 30.6427 3.77701C36.6656 1.28265 43.121 -0.000787738 49.64 3.62732e-07V3.62732e-07Z" fill="#F2F1F0"/>
<path fill-rule="evenodd" clip-rule="evenodd" d="M92.7296 49.6405C92.7296 58.1629 90.2024 66.494 85.4676 73.5801C80.7328 80.6662 74.0031 86.1891 66.1294 89.4505C58.2557 92.7119 49.5918 93.5652 41.2331 91.9026C32.8745 90.24 25.1966 86.136 19.1703 80.1098C13.1441 74.0835 9.04017 66.4056 7.37753 58.047C5.7149 49.6883 6.56822 41.0244 9.8296 33.1507C13.091 25.277 18.6139 18.5473 25.7 13.8125C32.7862 9.07773 41.1172 6.55055 49.6396 6.55055C55.2983 6.5502 60.9017 7.66452 66.1298 9.82988C71.3579 11.9952 76.1082 15.1692 80.1096 19.1705C84.1109 23.1719 87.2849 27.9222 89.4502 33.1503C91.6156 38.3784 92.7299 43.9818 92.7296 49.6405ZM49.6396 2.81055C58.9017 2.81055 67.9558 5.55708 75.6569 10.7028C83.3581 15.8486 89.3604 23.1624 92.9049 31.7195C96.4493 40.2765 97.3767 49.6925 95.5697 58.7766C93.7628 67.8608 89.3027 76.2051 82.7534 82.7544C76.2041 89.3036 67.8598 93.7638 58.7757 95.5707C49.6915 97.3777 40.2756 96.4503 31.7185 92.9058C23.1614 89.3614 15.8476 83.3591 10.7018 75.6579C5.5561 67.9568 2.80957 58.9026 2.80957 49.6405C2.81076 37.2208 7.74501 25.3101 16.5271 16.5281C25.3091 7.74599 37.2198 2.81174 49.6396 2.81055V2.81055Z" fill="#0078D4"/>
<path fill-rule="evenodd" clip-rule="evenodd" d="M92.7296 49.6396C92.7296 58.162 90.2024 66.493 85.4676 73.5791C80.7328 80.6652 74.0031 86.1882 66.1294 89.4496C58.2557 92.711 49.5918 93.5643 41.2331 91.9016C32.8745 90.239 25.1966 86.1351 19.1703 80.1088C13.1441 74.0826 9.04017 66.4047 7.37753 58.0461C5.7149 49.6874 6.56822 41.0234 9.8296 33.1498C13.091 25.2761 18.6139 18.5464 25.7001 13.8116C32.7862 9.07679 41.1172 6.54961 49.6396 6.54961C55.2983 6.54927 60.9017 7.66359 66.1298 9.82894C71.3579 11.9943 76.1082 15.1683 80.1096 19.1696C84.1109 23.171 87.2849 27.9213 89.4502 33.1494C91.6156 38.3774 92.7299 43.9809 92.7296 49.6396V49.6396ZM49.6396 2.80961C58.9017 2.80961 67.9558 5.55614 75.6569 10.7019C83.3581 15.8476 89.3604 23.1615 92.9048 31.7185C96.4493 40.2756 97.3767 49.6916 95.5697 58.7757C93.7628 67.8598 89.3027 76.2041 82.7534 82.7534C76.2041 89.3027 67.8598 93.7628 58.7757 95.5698C49.6915 97.3767 40.2756 96.4493 31.7185 92.9049C23.1614 89.3604 15.8476 83.3581 10.7018 75.657C5.5561 67.9558 2.80957 58.9017 2.80957 49.6396C2.81075 37.2199 7.74499 25.3092 16.5271 16.5271C25.3091 7.74501 37.2198 2.81076 49.6396 2.80957V2.80961Z" fill="#0078D4"/>
<path d="M18.1218 52.833H46.911" stroke="white" stroke-miterlimit="10"/>
<path d="M52.3604 52.833H81.1495" stroke="white" stroke-miterlimit="10"/>
<path d="M39.8315 39.2939H37.8315C37.6989 39.2939 37.5718 39.2413 37.478 39.1475C37.3842 39.0537 37.3315 38.9266 37.3315 38.7939C37.3315 38.6613 37.3842 38.5342 37.478 38.4404C37.5718 38.3466 37.6989 38.2939 37.8315 38.2939H39.8315C39.9642 38.2939 40.0913 38.3466 40.1851 38.4404C40.2789 38.5342 40.3315 38.6613 40.3315 38.7939C40.3315 38.9266 40.2789 39.0537 40.1851 39.1475C40.0913 39.2413 39.9642 39.2939 39.8315 39.2939Z" fill="white"/>
<path d="M54.0698 39.2939H50.5103C50.3776 39.2939 50.2505 39.2413 50.1567 39.1475C50.0629 39.0537 50.0103 38.9266 50.0103 38.7939C50.0103 38.6613 50.0629 38.5342 50.1567 38.4404C50.2505 38.3466 50.3776 38.2939 50.5103 38.2939H54.0698C54.2024 38.2939 54.3296 38.3466 54.4234 38.4404C54.5171 38.5342 54.5698 38.6613 54.5698 38.7939C54.5698 38.9266 54.5171 39.0537 54.4234 39.1475C54.3296 39.2413 54.2024 39.2939 54.0698 39.2939ZM46.9507 39.2939H43.3911C43.2585 39.2939 43.1313 39.2413 43.0376 39.1475C42.9438 39.0537 42.8911 38.9266 42.8911 38.7939C42.8911 38.6613 42.9438 38.5342 43.0376 38.4404C43.1313 38.3466 43.2585 38.2939 43.3911 38.2939H46.9507C47.0833 38.2939 47.2105 38.3466 47.3042 38.4404C47.398 38.5342 47.4507 38.6613 47.4507 38.7939C47.4507 38.9266 47.398 39.0537 47.3042 39.1475C47.2105 39.2413 47.0833 39.2939 46.9507 39.2939Z" fill="white"/>
<path d="M59.6294 39.2939H57.6294C57.4968 39.2939 57.3696 39.2413 57.2758 39.1475C57.1821 39.0537 57.1294 38.9266 57.1294 38.7939C57.1294 38.6613 57.1821 38.5342 57.2758 38.4404C57.3696 38.3466 57.4968 38.2939 57.6294 38.2939H59.6294C59.762 38.2939 59.8892 38.3466 59.9829 38.4404C60.0767 38.5342 60.1294 38.6613 60.1294 38.7939C60.1294 38.9266 60.0767 39.0537 59.9829 39.1475C59.8892 39.2413 59.762 39.2939 59.6294 39.2939Z" fill="white"/>
<path d="M49.6356 55.5578C51.1404 55.5578 52.3603 54.3379 52.3603 52.8331C52.3603 51.3283 51.1404 50.1084 49.6356 50.1084C48.1308 50.1084 46.9109 51.3283 46.9109 52.8331C46.9109 54.3379 48.1308 55.5578 49.6356 55.5578Z" stroke="white" stroke-miterlimit="10"/>
<path d="M16.419 54.5367C17.3595 54.5367 18.1219 53.7743 18.1219 52.8338C18.1219 51.8933 17.3595 51.1309 16.419 51.1309C15.4785 51.1309 14.7161 51.8933 14.7161 52.8338C14.7161 53.7743 15.4785 54.5367 16.419 54.5367Z" stroke="white" stroke-miterlimit="10"/>
<path d="M82.8523 54.5367C83.7928 54.5367 84.5553 53.7743 84.5553 52.8338C84.5553 51.8933 83.7928 51.1309 82.8523 51.1309C81.9118 51.1309 81.1494 51.8933 81.1494 52.8338C81.1494 53.7743 81.9118 54.5367 82.8523 54.5367Z" stroke="white" stroke-width="1.25" stroke-miterlimit="10"/>
<path d="M24.488 29.2051L15.531 34.3971V44.7821L24.488 49.9741L33.445 44.7821V34.3971L24.488 29.2051Z" fill="url(#paint1_linear)"/>
<g opacity="0.7">
<path opacity="0.7" d="M33.38 34.4463V44.7493L24.488 49.8933V39.5893L33.38 34.4463Z" fill="#156AB3" stroke="#0078D4" stroke-width="0.08113" stroke-linejoin="round"/>
<path opacity="0.7" d="M33.3799 34.4461L24.4879 39.5891L15.5959 34.4461L24.4879 29.2861L33.3799 34.4461Z" fill="#1D4A79" stroke="#0078D4" stroke-width="0.08113" stroke-linejoin="round"/>
<path opacity="0.7" d="M24.4879 39.5893V49.8933L15.5959 44.7493V34.4463L24.4879 39.5893Z" fill="#185A97" stroke="#0078D4" stroke-width="0.08113" stroke-linejoin="round"/>
<path opacity="0.7" d="M15.5959 44.7489L24.4879 39.5889V49.8929L15.5959 44.7489Z" fill="#1D4A79" stroke="#0078D4" stroke-width="0.08113" stroke-linejoin="round"/>
<path opacity="0.7" d="M33.38 44.7489L24.488 39.5889V49.8929L33.38 44.7489Z" fill="#185A97" stroke="#0078D4" stroke-width="0.08113" stroke-linejoin="round"/>
</g>
<path d="M28.3012 39.9297C28.2208 39.9162 28.1393 39.9108 28.0578 39.9135H23.0115L24.4881 36.1977C24.5411 36.2134 24.5954 36.2243 24.6504 36.2302C24.6836 36.2328 24.7171 36.2272 24.7477 36.214L26.3054 35.711C26.3609 35.6902 26.4109 35.6569 26.4514 35.6136L27.4736 34.4778L27.4412 34.0235L27.1978 33.8125L26.0133 35.1268L24.7152 35.5487L23.7741 34.705L24.05 33.3745L25.2345 32.0602L24.9911 31.833L24.5368 31.8655L23.5145 33.0013C23.4814 33.0463 23.4541 33.0954 23.4334 33.1473L23.0927 34.7374C23.0836 34.7928 23.0877 34.8496 23.1046 34.9032C23.1215 34.9567 23.1508 35.0055 23.19 35.0457C23.19 35.0457 23.0277 35.0944 22.9953 35.1431L18.9875 40.3191C18.7109 40.5075 18.4799 40.7554 18.3115 41.0445C18.143 41.3337 18.0414 41.6569 18.0139 41.9904C17.967 42.573 18.1466 43.1512 18.5153 43.6046C18.8841 44.058 19.4136 44.3516 19.9935 44.4243V44.4243L27.6197 45.7061V45.6899C27.7008 45.7061 27.7657 45.7224 27.8468 45.7386C27.928 45.7386 28.0091 45.7548 28.0902 45.7548C28.822 45.7546 29.527 45.4792 30.0651 44.9832C30.6032 44.4872 30.935 43.8069 30.9947 43.0775C31.0497 42.3041 30.7979 41.5401 30.2938 40.951C29.7897 40.3618 29.0738 39.9949 28.3012 39.9297V39.9297Z" fill="#1D4A79"/>
<path opacity="0.3" d="M20.2692 44.2616C20.2692 44.2616 18.3059 43.71 18.3059 41.9576C18.3059 40.4648 20.3341 40.124 20.3341 40.124L28.2037 40.2376C28.2037 40.2376 30.7187 40.5297 30.7187 42.8338C30.7187 45.1054 28.2037 45.4137 28.2037 45.4137L20.2692 44.2616Z" fill="white"/>
<path opacity="0.3" d="M20.2694 44.1325C21.3447 44.1325 22.2165 43.2607 22.2165 42.1854C22.2165 41.11 21.3447 40.2383 20.2694 40.2383C19.194 40.2383 18.3223 41.11 18.3223 42.1854C18.3223 43.2607 19.194 44.1325 20.2694 44.1325Z" fill="white"/>
<path opacity="0.2" d="M23.644 34.8682L24.553 35.4522L22.638 40.3032L19.604 40.2382L23.644 34.8682Z" fill="white"/>
<path opacity="0.3" d="M27.4087 44.1323H28.7068C28.736 44.1324 28.7648 44.125 28.7904 44.1108C28.816 44.0966 28.8375 44.0761 28.8528 44.0512L29.5018 42.9153C29.5176 42.8913 29.5261 42.8631 29.5261 42.8342C29.5261 42.8054 29.5176 42.7772 29.5018 42.7531L28.8528 41.6173C28.8374 41.5923 28.816 41.5718 28.7904 41.5576C28.7648 41.5434 28.736 41.536 28.7068 41.5361H27.4087C27.3794 41.536 27.3506 41.5434 27.3251 41.5576C27.2995 41.5718 27.278 41.5923 27.2627 41.6173L26.6137 42.7531C26.5978 42.7772 26.5894 42.8054 26.5894 42.8342C26.5894 42.8631 26.5978 42.8913 26.6137 42.9153L27.2627 44.0512C27.278 44.0761 27.2995 44.0966 27.3251 44.1108C27.3506 44.125 27.3794 44.1324 27.4087 44.1323Z" fill="white"/>
<path d="M20.2694 44.1325C21.3447 44.1325 22.2165 43.2607 22.2165 42.1854C22.2165 41.11 21.3447 40.2383 20.2694 40.2383C19.194 40.2383 18.3223 41.11 18.3223 42.1854C18.3223 43.2607 19.194 44.1325 20.2694 44.1325Z" stroke="white" stroke-width="0.64904" stroke-linejoin="round"/>
<path d="M19.9448 42.8342H20.5938C20.6262 42.8342 20.6425 42.818 20.6587 42.7855L20.9832 42.2176C20.9912 42.2056 20.9954 42.1915 20.9954 42.1771C20.9954 42.1626 20.9912 42.1485 20.9832 42.1365L20.6587 41.5686C20.6587 41.5524 20.6262 41.5361 20.5938 41.5361H19.9448C19.9123 41.5361 19.8961 41.5524 19.8799 41.5848L19.5554 42.1527C19.5474 42.1648 19.5432 42.1789 19.5432 42.1933C19.5432 42.2077 19.5474 42.2218 19.5554 42.2339L19.8799 42.8017C19.8799 42.818 19.9123 42.8342 19.9448 42.8342Z" fill="white"/>
<path d="M28.0577 39.9138V40.5628H28.2524C28.5497 40.5848 28.8394 40.6665 29.1042 40.8031C29.3691 40.9398 29.6037 41.1284 29.7939 41.3579C30.0757 41.6888 30.2568 42.0936 30.3156 42.5243C30.3745 42.9549 30.3087 43.3934 30.126 43.7879C29.9433 44.1823 29.6513 44.5161 29.2848 44.7497C28.9182 44.9833 28.4924 45.107 28.0577 45.1061H27.863C27.5658 45.0841 27.2761 45.0023 27.0112 44.8657C26.7463 44.7291 26.5118 44.5404 26.3216 44.311C26.0397 43.98 25.8587 43.5753 25.7998 43.1446C25.741 42.7139 25.8068 42.2754 25.9895 41.881C26.1722 41.4866 26.4641 41.1528 26.8307 40.9192C27.1972 40.6855 27.6231 40.5619 28.0577 40.5628V39.9138ZM28.0577 39.9138C27.3042 39.9145 26.5802 40.2067 26.0373 40.7293C25.4945 41.2519 25.1749 41.9643 25.1455 42.7172C25.1162 43.4702 25.3793 44.2052 25.8798 44.7685C26.3803 45.3318 27.0794 45.6795 27.8306 45.7389C27.9117 45.7389 27.9928 45.7551 28.074 45.7551C28.8276 45.7546 29.5517 45.4624 30.0947 44.9398C30.6376 44.4172 30.9573 43.7048 30.9867 42.9517C31.016 42.1987 30.7528 41.4635 30.2522 40.9002C29.7516 40.3369 29.0524 39.9892 28.3011 39.93C28.2207 39.9165 28.1392 39.9111 28.0577 39.9138V39.9138Z" fill="white"/>
<path d="M28.6256 41.8607L29.1935 42.8342L28.6256 43.8078H27.5061L26.9381 42.8342L27.5061 41.8607H28.6256ZM28.7068 41.5361H27.4087C27.3794 41.536 27.3506 41.5434 27.3251 41.5576C27.2995 41.5718 27.278 41.5923 27.2627 41.6173L26.6137 42.7531C26.5978 42.7772 26.5894 42.8054 26.5894 42.8342C26.5894 42.8631 26.5978 42.8913 26.6137 42.9153L27.2627 44.0512C27.278 44.0761 27.2995 44.0966 27.3251 44.1108C27.3506 44.125 27.3794 44.1324 27.4087 44.1323H28.7068C28.736 44.1324 28.7648 44.125 28.7904 44.1108C28.816 44.0966 28.8375 44.0761 28.8528 44.0512L29.5018 42.9153C29.5176 42.8913 29.5261 42.8631 29.5261 42.8342C29.5261 42.8054 29.5176 42.7772 29.5018 42.7531L28.8528 41.6173C28.8374 41.5923 28.816 41.5718 28.7904 41.5576C28.7648 41.5434 28.736 41.536 28.7068 41.5361V41.5361Z" fill="white"/>
<path d="M20.0259 44.1162L27.6521 45.3981" stroke="white" stroke-width="0.64904" stroke-miterlimit="10"/>
<path d="M28.0577 40.2383H20.2693" stroke="white" stroke-width="0.64904" stroke-miterlimit="10"/>
<path d="M19.231 40.5301L23.2712 35.354C23.3489 35.2597 23.4608 35.2 23.5823 35.1878C23.7039 35.1757 23.8254 35.2121 23.9202 35.2891L24.1149 35.4676C24.1836 35.5258 24.2317 35.6046 24.2522 35.6922C24.2726 35.7799 24.2643 35.8718 24.2285 35.9544L22.541 40.238" stroke="white" stroke-width="0.64904" stroke-linejoin="round"/>
<path d="M27.49 33.9913L27.2466 33.7641L26.0621 35.0784L24.764 35.5003L23.8391 34.6565L24.1149 33.326L25.2994 32.0117L25.0398 31.8008L24.5855 31.8332L23.5633 32.9691C23.5301 33.0141 23.5029 33.0631 23.4821 33.1151L23.1414 34.7052C23.1324 34.7606 23.1365 34.8174 23.1534 34.8709C23.1703 34.9245 23.1995 34.9733 23.2387 35.0135L24.4557 36.1006C24.5148 36.1508 24.5891 36.1794 24.6666 36.1818C24.6999 36.1843 24.7333 36.1787 24.764 36.1655L26.3217 35.6625C26.3772 35.6418 26.4272 35.6085 26.4677 35.5652L27.4899 34.4294L27.49 33.9913Z" fill="white" stroke="white" stroke-width="0.16226" stroke-miterlimit="10"/>
<path d="M60.846 60.6318H38.4342C37.3173 60.6318 36.4119 61.5373 36.4119 62.6542V75.5118C36.4119 76.6287 37.3173 77.5342 38.4342 77.5342H60.846C61.9629 77.5342 62.8683 76.6287 62.8683 75.5118V62.6542C62.8683 61.5373 61.9629 60.6318 60.846 60.6318Z" fill="url(#paint2_linear)"/>
<path d="M53.7675 69.1202C53.7675 68.8464 53.8763 68.5838 54.0699 68.3903C54.2635 68.1967 54.5261 68.0879 54.7998 68.0879H58.9291C59.2029 68.0879 59.4654 68.1967 59.659 68.3903C59.8526 68.5838 59.9614 68.8464 59.9614 69.1202V69.1202C59.9614 69.394 59.8526 69.6566 59.659 69.8502C59.4654 70.0438 59.2029 70.1525 58.9291 70.1525H54.7998C54.5261 70.1525 54.2635 70.0438 54.0699 69.8502C53.8763 69.6566 53.7675 69.394 53.7675 69.1202ZM47.5737 73.2494C47.5737 73.1139 47.6004 72.9796 47.6522 72.8544C47.7041 72.7291 47.7802 72.6153 47.876 72.5195C47.9719 72.4236 48.0857 72.3476 48.2109 72.2957C48.3362 72.2438 48.4704 72.2171 48.606 72.2171H58.9291C59.2029 72.2171 59.4654 72.3259 59.659 72.5195C59.8526 72.7131 59.9614 72.9757 59.9614 73.2494V73.2494C59.9614 73.5232 59.8526 73.7858 59.659 73.9794C59.4654 74.173 59.2029 74.2818 58.9291 74.2818H48.606C48.4704 74.2818 48.3362 74.2551 48.2109 74.2032C48.0857 74.1513 47.9719 74.0753 47.876 73.9794C47.7802 73.8835 47.7041 73.7697 47.6522 73.6445C47.6004 73.5192 47.5737 73.385 47.5737 73.2494V73.2494ZM45.509 73.2494C45.509 73.5232 45.4003 73.7858 45.2067 73.9794C45.0131 74.173 44.7505 74.2818 44.4767 74.2818H40.3475C40.0737 74.2818 39.8111 74.173 39.6175 73.9794C39.4239 73.7858 39.3152 73.5232 39.3152 73.2494V73.2494C39.3152 72.9757 39.4239 72.7131 39.6175 72.5195C39.8111 72.3259 40.0737 72.2171 40.3475 72.2171H44.4767C44.7505 72.2171 45.0131 72.3259 45.2067 72.5195C45.4003 72.7131 45.509 72.9757 45.509 73.2494V73.2494Z" fill="url(#paint3_linear)"/>
<path d="M51.7029 69.1205C51.7029 69.3943 51.5942 69.6569 51.4006 69.8505C51.207 70.0441 50.9444 70.1528 50.6706 70.1528H40.3475C40.0737 70.1528 39.8111 70.0441 39.6175 69.8505C39.4239 69.6569 39.3152 69.3943 39.3152 69.1205V69.1205C39.3152 68.8467 39.4239 68.5842 39.6175 68.3906C39.8111 68.197 40.0737 68.0882 40.3475 68.0882H50.6706C50.9444 68.0882 51.207 68.197 51.4006 68.3906C51.5942 68.5842 51.7029 68.8467 51.7029 69.1205V69.1205ZM59.9614 64.9913C59.9614 65.2651 59.8526 65.5277 59.659 65.7212C59.4654 65.9148 59.2029 66.0236 58.9291 66.0236H40.3475C40.0737 66.0236 39.8111 65.9148 39.6175 65.7212C39.4239 65.5277 39.3152 65.2651 39.3152 64.9913V64.9913C39.3152 64.8557 39.3419 64.7215 39.3938 64.5962C39.4456 64.471 39.5217 64.3572 39.6175 64.2613C39.7134 64.1655 39.8272 64.0894 39.9524 64.0376C40.0777 63.9857 40.2119 63.959 40.3475 63.959H58.9291C59.2029 63.959 59.4654 64.0677 59.659 64.2613C59.8526 64.4549 59.9614 64.7175 59.9614 64.9913V64.9913Z" fill="url(#paint4_linear)"/>
<path d="M49.6357 55.5586V61.2375" stroke="white" stroke-miterlimit="10"/>
<path d="M78.9653 32.4746H81.6393C83.0631 32.4746 84.2147 35.6632 84.2147 39.585V39.6825C84.1945 43.5758 83.0488 46.6943 81.6393 46.6943H78.9653C80.3915 46.6943 81.5407 43.5128 81.5407 39.5839C81.5407 35.6549 80.3891 32.4746 78.9653 32.4746ZM69.8987 34.5556C69.8631 34.4486 69.8155 34.3417 69.768 34.2347C69.3164 33.1414 68.7222 32.4758 68.0685 32.4758H65.3945C66.0482 32.4758 66.6424 33.1414 67.094 34.2347C67.7142 35.9488 68.0124 37.7627 67.9734 39.5851C68.018 41.4071 67.7196 43.2213 67.094 44.9331C66.6424 46.0383 66.0482 46.7038 65.3945 46.7038H68.0685C68.7222 46.7038 69.3045 46.0502 69.7561 44.9569C70.3766 43.2681 70.6788 41.479 70.6474 39.6802V39.5851C70.6771 37.8788 70.4241 36.1793 69.8987 34.5556V34.5556Z" fill="url(#paint5_linear)"/>
<path d="M81.5454 39.585C81.5454 43.5188 80.3926 46.7038 78.9665 46.7038C78.3129 46.7038 77.7186 46.0383 77.267 44.933H78.9665C79.8578 44.933 80.5709 42.5443 80.5709 39.585C80.5709 36.6258 79.8578 34.237 78.9665 34.237H77.267C77.7186 33.1437 78.3129 32.4781 78.9665 32.4781C80.3926 32.4758 81.5454 35.6632 81.5454 39.585ZM65.3993 32.4746C63.9744 32.4746 62.8228 35.6561 62.8228 39.585C62.8228 43.514 63.9768 46.6955 65.3993 46.6955C66.8218 46.6955 67.9723 43.5069 67.9723 39.585C67.9723 35.6632 66.8207 32.4746 65.3993 32.4746Z" fill="#9CEBFF"/>
<path d="M65.3992 34.2373C66.2906 34.2373 67.0048 36.6332 67.0048 39.5853C67.0048 42.5374 66.2918 44.9333 65.3992 44.9333C64.5067 44.9333 63.7925 42.5398 63.7925 39.5853C63.7925 36.6308 64.5115 34.2373 65.3992 34.2373Z" fill="#32BEDD"/>
<path d="M80.5709 39.5853C80.5709 42.5445 79.8578 44.9333 78.9665 44.9333H75.936V44.957H69.7561C70.3766 43.2683 70.6788 41.4792 70.6474 39.6804V39.5853C70.6769 37.8798 70.4239 36.1811 69.8987 34.5582C69.8631 34.4512 69.8155 34.3443 69.768 34.2373H78.9665C79.8579 34.2373 80.5709 36.6356 80.5709 39.5853Z" fill="url(#paint6_linear)"/>
</g>
<defs>
<linearGradient id="paint0_linear" x1="47.8698" y1="-15.153" x2="51.8525" y2="130.615" gradientUnits="userSpaceOnUse">
<stop stop-color="#00ABDE"/>
<stop offset="1" stop-color="#007ED8"/>
</linearGradient>
<linearGradient id="paint1_linear" x1="24.4881" y1="49.974" x2="24.4881" y2="29.2048" gradientUnits="userSpaceOnUse">
<stop stop-color="#1D4A79"/>
<stop offset="1" stop-color="#45CAF2"/>
</linearGradient>
<linearGradient id="paint2_linear" x1="49.6401" y1="76.9275" x2="49.6401" y2="61" gradientUnits="userSpaceOnUse">
<stop stop-color="white"/>
<stop offset="0.56" stop-color="#FBFBFB"/>
<stop offset="1" stop-color="#F2F2F2"/>
</linearGradient>
<linearGradient id="paint3_linear" x1="49.6383" y1="74.2818" x2="49.6383" y2="68.0768" gradientUnits="userSpaceOnUse">
<stop stop-color="#003067"/>
<stop offset="0.2" stop-color="#003F7C"/>
<stop offset="0.47" stop-color="#004F90"/>
<stop offset="0.74" stop-color="#00589D"/>
<stop offset="1" stop-color="#005BA1"/>
</linearGradient>
<linearGradient id="paint4_linear" x1="49.6383" y1="70.1528" x2="49.6383" y2="63.959" gradientUnits="userSpaceOnUse">
<stop stop-color="#004DAE"/>
<stop offset="0.21" stop-color="#0061C4"/>
<stop offset="0.51" stop-color="#0078DD"/>
<stop offset="0.78" stop-color="#0086EC"/>
<stop offset="1" stop-color="#008BF1"/>
</linearGradient>
<linearGradient id="paint5_linear" x1="74.8046" y1="29.696" x2="74.8046" y2="45.9681" gradientUnits="userSpaceOnUse">
<stop stop-color="#32BEDD"/>
<stop offset="0.067" stop-color="#3DCCE9"/>
<stop offset="0.171" stop-color="#48DBF5"/>
<stop offset="0.295" stop-color="#4EE3FD"/>
<stop offset="0.489" stop-color="#50E6FF"/>
<stop offset="0.703" stop-color="#4EE4FD"/>
<stop offset="0.828" stop-color="#48DBF6"/>
<stop offset="0.929" stop-color="#3DCDEA"/>
<stop offset="1" stop-color="#32BEDD"/>
</linearGradient>
<linearGradient id="paint6_linear" x1="75.1635" y1="32.5521" x2="75.1635" y2="47.2424" gradientUnits="userSpaceOnUse">
<stop stop-color="#198AB3"/>
<stop offset="0.025" stop-color="#1D92B9"/>
<stop offset="0.102" stop-color="#26A5C9"/>
<stop offset="0.192" stop-color="#2CB2D4"/>
<stop offset="0.307" stop-color="#30BADA"/>
<stop offset="0.531" stop-color="#31BCDC"/>
<stop offset="0.656" stop-color="#2EB5D6"/>
<stop offset="0.84" stop-color="#24A1C6"/>
<stop offset="1" stop-color="#198AB3"/>
</linearGradient>
<clipPath id="clip0">
<rect width="99.2799" height="99.28" fill="white"/>
</clipPath>
</defs>
</svg>
