<?xml version="1.0" encoding="UTF-8"?>
<svg width="100px" height="100px" viewBox="0 0 100 100" version="1.1" xmlns="http://www.w3.org/2000/svg" xmlns:xlink="http://www.w3.org/1999/xlink">
    <!-- Generator: Sketch 55.2 (78181) - https://sketchapp.com -->
    <title>Deploy applications with Azure DevOps/create-a-release-pipeline-with-azure-pipelines_v2</title>
    <desc>Created with Sketch.</desc>
    <defs>
        <rect id="path-1" x="0" y="0" width="96" height="96" rx="48"></rect>
        <filter x="-3.7%" y="-21.1%" width="107.3%" height="142.1%" filterUnits="objectBoundingBox" id="filter-3">
            <feOffset dx="0" dy="2" in="SourceAlpha" result="shadowOffsetOuter1"></feOffset>
            <feColorMatrix values="0 0 0 0 0   0 0 0 0 0   0 0 0 0 0  0 0 0 0.1 0" type="matrix" in="shadowOffsetOuter1" result="shadowMatrixOuter1"></feColorMatrix>
            <feMerge>
                <feMergeNode in="shadowMatrixOuter1"></feMergeNode>
                <feMergeNode in="SourceGraphic"></feMergeNode>
            </feMerge>
        </filter>
        <filter x="-65.9%" y="-65.9%" width="237.4%" height="237.4%" filterUnits="objectBoundingBox" id="filter-4">
            <feOffset dx="0" dy="2" in="SourceAlpha" result="shadowOffsetOuter1"></feOffset>
            <feColorMatrix values="0 0 0 0 0   0 0 0 0 0   0 0 0 0 0  0 0 0 0.1 0" type="matrix" in="shadowOffsetOuter1" result="shadowMatrixOuter1"></feColorMatrix>
            <feMerge>
                <feMergeNode in="shadowMatrixOuter1"></feMergeNode>
                <feMergeNode in="SourceGraphic"></feMergeNode>
            </feMerge>
        </filter>
        <filter x="-65.9%" y="-65.9%" width="237.4%" height="237.4%" filterUnits="objectBoundingBox" id="filter-5">
            <feOffset dx="0" dy="2" in="SourceAlpha" result="shadowOffsetOuter1"></feOffset>
            <feColorMatrix values="0 0 0 0 0   0 0 0 0 0   0 0 0 0 0  0 0 0 0.1 0" type="matrix" in="shadowOffsetOuter1" result="shadowMatrixOuter1"></feColorMatrix>
            <feMerge>
                <feMergeNode in="shadowMatrixOuter1"></feMergeNode>
                <feMergeNode in="SourceGraphic"></feMergeNode>
            </feMerge>
        </filter>
        <filter x="-65.9%" y="-65.9%" width="237.4%" height="237.4%" filterUnits="objectBoundingBox" id="filter-6">
            <feOffset dx="0" dy="2" in="SourceAlpha" result="shadowOffsetOuter1"></feOffset>
            <feColorMatrix values="0 0 0 0 0   0 0 0 0 0   0 0 0 0 0  0 0 0 0.1 0" type="matrix" in="shadowOffsetOuter1" result="shadowMatrixOuter1"></feColorMatrix>
            <feMerge>
                <feMergeNode in="shadowMatrixOuter1"></feMergeNode>
                <feMergeNode in="SourceGraphic"></feMergeNode>
            </feMerge>
        </filter>
        <filter x="-65.9%" y="-65.9%" width="237.4%" height="237.4%" filterUnits="objectBoundingBox" id="filter-7">
            <feOffset dx="0" dy="2" in="SourceAlpha" result="shadowOffsetOuter1"></feOffset>
            <feColorMatrix values="0 0 0 0 0   0 0 0 0 0   0 0 0 0 0  0 0 0 0.1 0" type="matrix" in="shadowOffsetOuter1" result="shadowMatrixOuter1"></feColorMatrix>
            <feMerge>
                <feMergeNode in="shadowMatrixOuter1"></feMergeNode>
                <feMergeNode in="SourceGraphic"></feMergeNode>
            </feMerge>
        </filter>
        <filter x="-65.9%" y="-65.9%" width="237.4%" height="237.4%" filterUnits="objectBoundingBox" id="filter-8">
            <feOffset dx="0" dy="2" in="SourceAlpha" result="shadowOffsetOuter1"></feOffset>
            <feColorMatrix values="0 0 0 0 0   0 0 0 0 0   0 0 0 0 0  0 0 0 0.1 0" type="matrix" in="shadowOffsetOuter1" result="shadowMatrixOuter1"></feColorMatrix>
            <feMerge>
                <feMergeNode in="shadowMatrixOuter1"></feMergeNode>
                <feMergeNode in="SourceGraphic"></feMergeNode>
            </feMerge>
        </filter>
        <filter x="-65.9%" y="-65.9%" width="237.4%" height="237.4%" filterUnits="objectBoundingBox" id="filter-9">
            <feOffset dx="0" dy="2" in="SourceAlpha" result="shadowOffsetOuter1"></feOffset>
            <feColorMatrix values="0 0 0 0 0   0 0 0 0 0   0 0 0 0 0  0 0 0 0.1 0" type="matrix" in="shadowOffsetOuter1" result="shadowMatrixOuter1"></feColorMatrix>
            <feMerge>
                <feMergeNode in="shadowMatrixOuter1"></feMergeNode>
                <feMergeNode in="SourceGraphic"></feMergeNode>
            </feMerge>
        </filter>
        <filter x="-65.9%" y="-65.9%" width="237.4%" height="237.4%" filterUnits="objectBoundingBox" id="filter-10">
            <feOffset dx="0" dy="2" in="SourceAlpha" result="shadowOffsetOuter1"></feOffset>
            <feColorMatrix values="0 0 0 0 0   0 0 0 0 0   0 0 0 0 0  0 0 0 0.1 0" type="matrix" in="shadowOffsetOuter1" result="shadowMatrixOuter1"></feColorMatrix>
            <feMerge>
                <feMergeNode in="shadowMatrixOuter1"></feMergeNode>
                <feMergeNode in="SourceGraphic"></feMergeNode>
            </feMerge>
        </filter>
        <filter x="-65.9%" y="-65.9%" width="237.4%" height="237.4%" filterUnits="objectBoundingBox" id="filter-11">
            <feOffset dx="0" dy="2" in="SourceAlpha" result="shadowOffsetOuter1"></feOffset>
            <feColorMatrix values="0 0 0 0 0   0 0 0 0 0   0 0 0 0 0  0 0 0 0.1 0" type="matrix" in="shadowOffsetOuter1" result="shadowMatrixOuter1"></feColorMatrix>
            <feMerge>
                <feMergeNode in="shadowMatrixOuter1"></feMergeNode>
                <feMergeNode in="SourceGraphic"></feMergeNode>
            </feMerge>
        </filter>
        <filter x="-11.4%" y="-18.8%" width="125.7%" height="155.5%" filterUnits="objectBoundingBox" id="filter-12">
            <feOffset dx="0" dy="2" in="SourceAlpha" result="shadowOffsetOuter1"></feOffset>
            <feColorMatrix values="0 0 0 0 0   0 0 0 0 0   0 0 0 0 0  0 0 0 0.1 0" type="matrix" in="shadowOffsetOuter1" result="shadowMatrixOuter1"></feColorMatrix>
            <feMerge>
                <feMergeNode in="shadowMatrixOuter1"></feMergeNode>
                <feMergeNode in="SourceGraphic"></feMergeNode>
            </feMerge>
        </filter>
        <filter x="-140.5%" y="-140.5%" width="386.3%" height="386.3%" filterUnits="objectBoundingBox" id="filter-13">
            <feOffset dx="0" dy="2" in="SourceAlpha" result="shadowOffsetOuter1"></feOffset>
            <feColorMatrix values="0 0 0 0 0   0 0 0 0 0   0 0 0 0 0  0 0 0 0.1 0" type="matrix" in="shadowOffsetOuter1" result="shadowMatrixOuter1"></feColorMatrix>
            <feMerge>
                <feMergeNode in="shadowMatrixOuter1"></feMergeNode>
                <feMergeNode in="SourceGraphic"></feMergeNode>
            </feMerge>
        </filter>
        <filter x="-140.5%" y="-140.5%" width="386.3%" height="386.3%" filterUnits="objectBoundingBox" id="filter-14">
            <feOffset dx="0" dy="2" in="SourceAlpha" result="shadowOffsetOuter1"></feOffset>
            <feColorMatrix values="0 0 0 0 0   0 0 0 0 0   0 0 0 0 0  0 0 0 0.1 0" type="matrix" in="shadowOffsetOuter1" result="shadowMatrixOuter1"></feColorMatrix>
            <feMerge>
                <feMergeNode in="shadowMatrixOuter1"></feMergeNode>
                <feMergeNode in="SourceGraphic"></feMergeNode>
            </feMerge>
        </filter>
        <path d="M13.43659,2.99660421 L13.2438813,6.9816273 C13.4972862,6.97245517 13.7567587,6.96022697 14.0192768,6.95105484 L14.2089517,3.04108355 C17.0115786,3.18323587 19.5350616,3.14808126 21.4167388,3.07012601 L21.7308398,6.7309551 C21.9872825,6.72637295 22.2467473,6.72331297 22.5047204,6.7202569 L22.1891005,3.03497141 C23.8187868,2.95243009 24.4356955,2.95243009 24.8020836,2.85001844 C25.1684716,2.74760679 23.5062357,0.42883518 21.275648,0.0405849931 C19.0435453,-0.350717352 4.36424883,2.20037829 11.4885181,2.84849236 C12.1468021,2.90794684 12.7977754,2.95685963 13.43659,2.99660421 Z" id="path-15"></path>
        <filter x="-3.3%" y="-7.2%" width="106.5%" height="114.3%" filterUnits="objectBoundingBox" id="filter-16">
            <feOffset dx="0" dy="1" in="SourceAlpha" result="shadowOffsetInner1"></feOffset>
            <feComposite in="shadowOffsetInner1" in2="SourceAlpha" operator="arithmetic" k2="-1" k3="1" result="shadowInnerInner1"></feComposite>
            <feColorMatrix values="0 0 0 0 0   0 0 0 0 0   0 0 0 0 0  0 0 0 0.1 0" type="matrix" in="shadowInnerInner1"></feColorMatrix>
        </filter>
        <filter x="-11.1%" y="-12.5%" width="122.2%" height="128.1%" filterUnits="objectBoundingBox" id="filter-17">
            <feOffset dx="0" dy="2" in="SourceAlpha" result="shadowOffsetOuter1"></feOffset>
            <feColorMatrix values="0 0 0 0 0   0 0 0 0 0   0 0 0 0 0  0 0 0 0.0970052083 0" type="matrix" in="shadowOffsetOuter1" result="shadowMatrixOuter1"></feColorMatrix>
            <feMerge>
                <feMergeNode in="shadowMatrixOuter1"></feMergeNode>
                <feMergeNode in="SourceGraphic"></feMergeNode>
            </feMerge>
        </filter>
    </defs>
    <g id="Badges" stroke="none" stroke-width="1" fill="none" fill-rule="evenodd">
        <g id="Deploy-applications-with-Azure-DevOps" transform="translate(-50.000000, -260.000000)">
            <g id="Deploy-applications-with-Azure-DevOps/create-a-release-pipeline-with-azure-pipelines_v2" transform="translate(50.000000, 260.000000)">
                <g id="Mask" transform="translate(2.000000, 2.000000)">
                    <mask id="mask-2" fill="white">
                        <use xlink:href="#path-1"></use>
                    </mask>
                    <use id="BG" fill="#55A2FF" xlink:href="#path-1"></use>
                    <g id="conveyer-belt" filter="url(#filter-3)" mask="url(#mask-2)">
                        <g transform="translate(-7.000000, 57.000000)">
                            <rect id="Rectangle" fill="#41505E" fill-rule="nonzero" x="7.81597009e-13" y="0.666666667" width="107.660131" height="17.4379085" rx="8.71895425"></rect>
                            <path d="M77.1437908,0.666666667 L99.6993464,0.666666667 C104.514692,0.666666667 108.418301,4.57027545 108.418301,9.38562092 C108.418301,14.2009664 104.514692,18.1045752 99.6993464,18.1045752 L54.5882353,18.1045752 L54.5882353,0.666666667 L77.1437908,0.666666667 Z" id="Combined-Shape" fill="#41505E" fill-rule="nonzero"></path>
                            <rect id="Rectangle" fill="#576A7C" fill-rule="nonzero" x="2.2745098" y="2.94117647" width="103.111111" height="12.8888889" rx="6.44444444"></rect>
                            <path d="M54.5882353,2.94117647 L99.6993464,2.94117647 C103.258515,2.94117647 106.143791,5.82645253 106.143791,9.38562092 C106.143791,12.9447893 103.258515,15.8300654 99.6993464,15.8300654 L54.5882353,15.8300654 L54.5882353,2.94117647 Z" id="Combined-Shape" fill="#41505E" fill-rule="nonzero"></path>
                            <g id="Group-6" filter="url(#filter-4)" stroke-width="1" fill="none" fill-rule="evenodd" transform="translate(57.620915, 5.973856)">
                                <path d="M3.63910191,8.07945118 C1.35352259,8.07945118 -0.50011378,6.22645488 -0.50011378,3.94023549 C-0.50011378,1.65278612 1.35293226,-0.198980192 3.63910191,-0.198980192 C5.92650104,-0.198980192 7.77831759,1.6521967 7.77831759,3.94023549 C7.77831759,6.22704454 5.92591095,8.07945118 3.63910191,8.07945118 Z" id="Fill-177" stroke="#B7B7B7" fill="#E1E4E1"></path>
                                <path d="M6.2120274,6.51316098 C7.63496073,5.09022765 7.63314112,2.78842373 6.2120274,1.36731 L1.06617642,6.51316098 C2.48729014,7.93427471 4.79091367,7.93609432 6.2120274,6.51316098" id="Fill-179" fill="#CCCFCC"></path>
                            </g>
                            <g id="Group-6" filter="url(#filter-5)" stroke-width="1" fill="none" fill-rule="evenodd" transform="translate(69.751634, 5.973856)">
                                <path d="M3.63910191,8.07945118 C1.35352259,8.07945118 -0.50011378,6.22645488 -0.50011378,3.94023549 C-0.50011378,1.65278612 1.35293226,-0.198980192 3.63910191,-0.198980192 C5.92650104,-0.198980192 7.77831759,1.6521967 7.77831759,3.94023549 C7.77831759,6.22704454 5.92591095,8.07945118 3.63910191,8.07945118 Z" id="Fill-177" stroke="#B7B7B7" fill="#E1E4E1"></path>
                                <path d="M6.2120274,6.51316098 C7.63496073,5.09022765 7.63314112,2.78842373 6.2120274,1.36731 L1.06617642,6.51316098 C2.48729014,7.93427471 4.79091367,7.93609432 6.2120274,6.51316098" id="Fill-179" fill="#CCCFCC"></path>
                            </g>
                            <g id="Group-6" filter="url(#filter-6)" stroke-width="1" fill="none" fill-rule="evenodd" transform="translate(81.882353, 5.973856)">
                                <path d="M3.63910191,8.07945118 C1.35352259,8.07945118 -0.50011378,6.22645488 -0.50011378,3.94023549 C-0.50011378,1.65278612 1.35293226,-0.198980192 3.63910191,-0.198980192 C5.92650104,-0.198980192 7.77831759,1.6521967 7.77831759,3.94023549 C7.77831759,6.22704454 5.92591095,8.07945118 3.63910191,8.07945118 Z" id="Fill-177" stroke="#B7B7B7" fill="#E1E4E1"></path>
                                <path d="M6.2120274,6.51316098 C7.63496073,5.09022765 7.63314112,2.78842373 6.2120274,1.36731 L1.06617642,6.51316098 C2.48729014,7.93427471 4.79091367,7.93609432 6.2120274,6.51316098" id="Fill-179" fill="#CCCFCC"></path>
                            </g>
                            <g id="Group-6" filter="url(#filter-7)" stroke-width="1" fill="none" fill-rule="evenodd" transform="translate(94.013072, 5.973856)">
                                <path d="M3.63910191,8.07945118 C1.35352259,8.07945118 -0.50011378,6.22645488 -0.50011378,3.94023549 C-0.50011378,1.65278612 1.35293226,-0.198980192 3.63910191,-0.198980192 C5.92650104,-0.198980192 7.77831759,1.6521967 7.77831759,3.94023549 C7.77831759,6.22704454 5.92591095,8.07945118 3.63910191,8.07945118 Z" id="Fill-177" stroke="#B7B7B7" fill="#E1E4E1"></path>
                                <path d="M6.2120274,6.51316098 C7.63496073,5.09022765 7.63314112,2.78842373 6.2120274,1.36731 L1.06617642,6.51316098 C2.48729014,7.93427471 4.79091367,7.93609432 6.2120274,6.51316098" id="Fill-179" fill="#CCCFCC"></path>
                            </g>
                            <g id="Group-6" filter="url(#filter-8)" stroke-width="1" fill="none" fill-rule="evenodd" transform="translate(6.065359, 5.973856)">
                                <path d="M3.63910191,8.07945118 C1.35352259,8.07945118 -0.50011378,6.22645488 -0.50011378,3.94023549 C-0.50011378,1.65278612 1.35293226,-0.198980192 3.63910191,-0.198980192 C5.92650104,-0.198980192 7.77831759,1.6521967 7.77831759,3.94023549 C7.77831759,6.22704454 5.92591095,8.07945118 3.63910191,8.07945118 Z" id="Fill-177" stroke="#C8C8C8" fill="#FFFFFE"></path>
                                <path d="M6.2120274,6.51316098 C7.63496073,5.09022765 7.63314112,2.78842373 6.2120274,1.36731 L1.06617642,6.51316098 C2.48729014,7.93427471 4.79091367,7.93609432 6.2120274,6.51316098" id="Fill-179" fill="#E1E4E1"></path>
                            </g>
                            <g id="Group-5" filter="url(#filter-9)" stroke-width="1" fill="none" fill-rule="evenodd" transform="translate(18.196078, 5.973856)">
                                <path d="M3.94236988,8.07945118 C1.65679056,8.07945118 -0.196845806,6.22645488 -0.196845806,3.94023549 C-0.196845806,1.65278612 1.65620024,-0.198980192 3.94236988,-0.198980192 C6.22976901,-0.198980192 8.08158557,1.6521967 8.08158557,3.94023549 C8.08158557,6.22704454 6.22917892,8.07945118 3.94236988,8.07945118 Z" id="Fill-180" stroke="#C8C8C8" fill="#FFFFFE"></path>
                                <path d="M6.51529537,6.51316098 C7.9382287,5.09022765 7.9364091,2.78842373 6.51529537,1.36731 L1.36944439,6.51316098 C2.79055812,7.93427471 5.09236204,7.93609432 6.51529537,6.51316098" id="Fill-182" fill="#E1E4E1"></path>
                            </g>
                            <g id="Group-4" filter="url(#filter-10)" stroke-width="1" fill="none" fill-rule="evenodd" transform="translate(30.326797, 5.973856)">
                                <path d="M3.63910191,8.07945118 C1.35352259,8.07945118 -0.50011378,6.22645488 -0.50011378,3.94023549 C-0.50011378,1.65278612 1.35293226,-0.198980192 3.63910191,-0.198980192 C5.92650104,-0.198980192 7.77831759,1.6521967 7.77831759,3.94023549 C7.77831759,6.22704454 5.92591095,8.07945118 3.63910191,8.07945118 Z" id="Fill-177" stroke="#C8C8C8" fill="#FFFFFE"></path>
                                <path d="M6.2120274,6.51316098 C7.63496073,5.09022765 7.63314112,2.78842373 6.2120274,1.36731 L1.06617642,6.51316098 C2.48729014,7.93427471 4.79091367,7.93609432 6.2120274,6.51316098" id="Fill-179" fill="#E1E4E1"></path>
                            </g>
                            <g id="Group" filter="url(#filter-11)" stroke-width="1" fill="none" fill-rule="evenodd" transform="translate(42.457516, 5.973856)">
                                <path d="M3.94236988,8.07945118 C1.65679056,8.07945118 -0.196845806,6.22645488 -0.196845806,3.94023549 C-0.196845806,1.65278612 1.65620024,-0.198980192 3.94236988,-0.198980192 C6.22976901,-0.198980192 8.08158557,1.6521967 8.08158557,3.94023549 C8.08158557,6.22704454 6.22917892,8.07945118 3.94236988,8.07945118 Z" id="Fill-180" stroke="#C8C8C8" fill="#FFFFFE"></path>
                                <path d="M6.51529537,6.51316098 C7.9382287,5.09022765 7.9364091,2.78842373 6.51529537,1.36731 L1.36944439,6.51316098 C2.79055812,7.93427471 5.09236204,7.93609432 6.51529537,6.51316098" id="Fill-182" fill="#E1E4E1"></path>
                            </g>
                        </g>
                    </g>
                    <g id="Cardboard-Box" mask="url(#mask-2)">
                        <g transform="translate(9.000000, 38.000000)">
                            <path d="M22.6465077,2.12307692 L0.000353846153,2.12307692 L2.26532308,0.424615385 C2.57670769,0.191076923 3.14993846,0 3.53916923,0 L19.1084,0 C19.4976308,0 20.0708615,0.191076923 20.3822462,0.424615385 L22.6465077,2.12307692" id="Fill-680" fill="#CC9547"></path>
                            <path d="M22.6461538,19.1076923 C22.6461538,19.4969231 22.3276923,19.8153846 21.9384615,19.8153846 L0.707692308,19.8153846 C0.318107692,19.8153846 0,19.4969231 0,19.1076923 L0.000353846154,2.12307692 L22.6465077,2.12307692 L22.6461538,19.1076923" id="Fill-681" fill="#F2BE53"></path>
                            <polyline id="Fill-682" fill="#EFB252" points="15.5695846 2.12307692 7.07727692 2.12307692 8.13881538 0 14.5080462 0 15.5695846 2.12307692"></polyline>
                            <path d="M21.9384615,19.8153846 C22.3276923,19.8153846 22.6461538,19.4969231 22.6461538,19.1076923 L22.6465077,2.83076923 L12.3846154,2.83076923 C11.7982923,2.83076923 11.3230769,3.30492308 11.3230769,3.89230769 L11.3230769,18.0461538 C11.3230769,18.6335385 10.8478615,19.1076923 10.2615385,19.1076923 L0,19.1076923 C0,19.4969231 0.318107692,19.8153846 0.707692308,19.8153846 L21.9384615,19.8153846" id="Fill-683" fill="#EFB252"></path>
                            <path d="M7.07727692,2.12307692 L7.07727692,8.26230769 C7.07727692,8.45692308 7.20466154,8.52061538 7.36035385,8.40384615 L8.20958462,7.76692308 C8.36527692,7.65015385 8.62004615,7.65015385 8.77573846,7.76692308 L9.62496923,8.40384615 C9.78066154,8.52061538 10.0354308,8.52061538 10.1911231,8.40384615 L11.0403538,7.76692308 C11.1960462,7.65015385 11.4508154,7.65015385 11.6065077,7.76692308 L12.4557385,8.40384615 C12.6114308,8.52061538 12.8662,8.52061538 13.0218923,8.40384615 L13.8711231,7.76692308 C14.0268154,7.65015385 14.2815846,7.65015385 14.4372769,7.76692308 L15.2865077,8.40384615 C15.4422,8.52061538 15.5695846,8.45692308 15.5695846,8.26230769 L15.5695846,2.12307692 L7.07727692,2.12307692" id="Fill-684" fill="#F7CB64"></path>
                            <path d="M12.3846154,2.83076923 C11.7982923,2.83076923 11.3230769,3.30492308 11.3230769,3.89230769 L11.3230769,7.67846154 C11.4256923,7.67846154 11.5286615,7.71030769 11.6065077,7.76692308 L12.4557385,8.40384615 C12.6114308,8.52061538 12.8662,8.52061538 13.0218923,8.40384615 L13.8711231,7.76692308 C14.0268154,7.65015385 14.2815846,7.65015385 14.4372769,7.76692308 L15.2865077,8.40384615 C15.4422,8.52061538 15.5695846,8.45692308 15.5695846,8.26230769 L15.5695846,2.83076923 L12.3846154,2.83076923" id="Fill-685" fill="#F2BE53"></path>
                            <path d="M20.1695846,16.9846154 C20.1695846,17.3738462 19.8511231,17.6923077 19.4618923,17.6923077 L14.5080462,17.6923077 C14.1188154,17.6923077 13.8003538,17.3738462 13.8003538,16.9846154 L13.8003538,14.1538462 C13.8003538,13.7646154 14.1188154,13.4461538 14.5080462,13.4461538 L19.4618923,13.4461538 C19.8511231,13.4461538 20.1695846,13.7646154 20.1695846,14.1538462 L20.1695846,16.9846154" id="Fill-686" fill="#FFFFFE"></path>
                            <path d="M19.1080462,15.2153846 L14.8618923,15.2153846 C14.6662154,15.2153846 14.5080462,15.0561538 14.5080462,14.8615385 C14.5080462,14.6669231 14.6662154,14.5076923 14.8618923,14.5076923 L19.1080462,14.5076923 C19.3037231,14.5076923 19.4618923,14.6669231 19.4618923,14.8615385 C19.4618923,15.0561538 19.3037231,15.2153846 19.1080462,15.2153846" id="Fill-687" fill="#C5CCCD"></path>
                            <path d="M19.1080462,16.6307692 L14.8618923,16.6307692 C14.6662154,16.6307692 14.5080462,16.4715385 14.5080462,16.2769231 C14.5080462,16.0823077 14.6662154,15.9230769 14.8618923,15.9230769 L19.1080462,15.9230769 C19.3037231,15.9230769 19.4618923,16.0823077 19.4618923,16.2769231 C19.4618923,16.4715385 19.3037231,16.6307692 19.1080462,16.6307692" id="Fill-688" fill="#C5CCCD"></path>
                        </g>
                    </g>
                    <g id="airplane" filter="url(#filter-12)" mask="url(#mask-2)">
                        <g transform="translate(55.000000, 38.000000)">
                            <g id="wheel-1" stroke-width="1" fill="none" fill-rule="evenodd" transform="translate(18.280840, 14.055118)">
                                <polygon id="Path-235" fill="#3D4750" points="-3.69482223e-13 0 1.1023622 0 2.61649545 2.89370079 1.67035493 3.23203472"></polygon>
                                <circle id="Oval" fill="#3D4750" cx="2.84776903" cy="4.50131234" r="2.02099738"></circle>
                                <g id="Group-6" filter="url(#filter-13)" transform="translate(1.469816, 3.123360)">
                                    <path d="M1.39800099,2.77738912 C0.636578749,2.77738912 0.0186128695,2.16011293 0.0186128695,1.39800099 C0.0186128695,0.635199361 0.636578749,0.0186128695 1.39800099,0.0186128695 C2.16011293,0.0186128695 2.77738912,0.635199361 2.77738912,1.39800099 C2.77738912,2.16011293 2.16011293,2.77738912 1.39800099,2.77738912 Z" id="Fill-177" fill="#E1E4E1"></path>
                                    <path d="M2.3801619,2.3801619 C2.91013699,1.85018681 2.90945928,0.992874156 2.3801619,0.46357678 L0.46357678,2.3801619 C0.992874156,2.90945928 1.85086452,2.91013699 2.3801619,2.3801619" id="Fill-179" fill="#CCCFCC"></path>
                                </g>
                            </g>
                            <g id="wheel-1" stroke-width="1" fill="none" fill-rule="evenodd" transform="translate(19.566929, 14.698163)">
                                <polygon id="Path-235" fill="#41505E" points="-3.69482223e-13 0 1.1023622 0 2.61649545 2.89370079 1.67035493 3.23203472"></polygon>
                                <circle id="Oval" fill="#41505E" cx="2.84776903" cy="4.50131234" r="2.02099738"></circle>
                                <g id="Group-6" filter="url(#filter-14)" transform="translate(1.469816, 3.123360)">
                                    <path d="M1.39800099,2.77738912 C0.636578749,2.77738912 0.0186128695,2.16011293 0.0186128695,1.39800099 C0.0186128695,0.635199361 0.636578749,0.0186128695 1.39800099,0.0186128695 C2.16011293,0.0186128695 2.77738912,0.635199361 2.77738912,1.39800099 C2.77738912,2.16011293 2.16011293,2.77738912 1.39800099,2.77738912 Z" id="Fill-177" fill="#E1E4E1"></path>
                                    <path d="M2.3801619,2.3801619 C2.91013699,1.85018681 2.90945928,0.992874156 2.3801619,0.46357678 L0.46357678,2.3801619 C0.992874156,2.90945928 1.85086452,2.91013699 2.3801619,2.3801619" id="Fill-179" fill="#CCCFCC"></path>
                                </g>
                            </g>
                            <path d="M29.2580703,5.87926509 L26.7024636,5.87926509 C26.3636574,5.87926509 26.0892388,6.13135749 26.0892388,6.44115076 L26.0892388,14.8711852 C26.0892388,15.1825024 26.3636574,15.4330709 26.7024636,15.4330709 L29.2580703,15.4330709 C30.7543386,15.4330709 31.9685039,13.2948496 31.9685039,10.6570621 C31.9685039,8.01927467 30.7542994,5.87949835 29.2580703,5.87949835 L29.2580703,5.87926509 Z" id="Fill-1" fill="#0078D4" fill-rule="evenodd"></path>
                            <path d="M31.6929134,9.00262467 C32.0987919,9.00262467 32.4278215,9.33165425 32.4278215,9.73753281 L32.4278215,11.5748031 C32.4278215,11.9806817 32.0987919,12.3097113 31.6929134,12.3097113 L31.6929134,12.3097113 L31.6929134,9.00262467 Z" id="Rectangle" fill="#CCCFCC" fill-rule="evenodd"></path>
                            <path d="M31.6929134,9.00262467 L31.6929134,9.00262467 L31.6929134,12.3097113 C31.5407089,12.3097113 31.4173228,12.1863252 31.4173228,12.0341207 L31.4173228,9.27821522 C31.4173228,9.12601076 31.5407089,9.00262467 31.6929134,9.00262467 Z" id="Rectangle" fill="#A7A9A7" fill-rule="evenodd"></path>
                            <path d="M34.9081365,10.7015911 C34.4129605,9.94994282 33.4652417,9.88615223 33.4652417,9.88615223 L33.3067814,9.88615223 C34.3245933,3.97162579 33.2808778,2.99241501 32.3849623,4.04159719 C31.447931,5.13641626 32.3849623,10.7017077 32.3849623,10.7017077 C32.3849623,10.7017077 31.447931,16.2667659 32.3849623,17.3633731 C33.2824029,18.411117 34.3261146,17.4317041 33.3067814,11.5188181 L33.4652417,11.5188181 C33.4652417,11.5172982 34.4129605,11.4535231 34.9081365,10.7018632 L34.9081365,10.7015911 Z" id="Fill-2" fill="#D6DEE0" fill-rule="evenodd"></path>
                            <path d="M32.3849623,10.7017077 C32.3849623,10.7017077 31.447931,5.13641626 32.3849623,4.04159719 C33.2808778,2.99241501 34.3245933,3.97162579 33.3067814,9.88615223 L33.4652417,9.88615223 C33.4652417,9.88615223 33.5651473,9.89287684 33.7170321,9.92768583 L33.2824258,10.7020997 L32.3848964,10.7020997 Z" id="Combined-Shape" fill="#E4ECED" fill-rule="evenodd"></path>
                            <g id="Fill-5" fill="none">
                                <use fill="#DF5142" fill-rule="evenodd" xlink:href="#path-15"></use>
                                <use fill="black" fill-opacity="1" filter="url(#filter-16)" xlink:href="#path-15"></use>
                            </g>
                            <path d="M22.8003469,3.00150089 C22.633043,3.01136362 22.4565794,3.02117707 22.2714704,3.03075459 L22.7999149,2.99677811 L22.8003469,3.00150089 Z M22.1891924,3.03604468 L22.5047204,6.7202569 C22.2467473,6.72331297 21.9872825,6.72637295 21.7308398,6.7309551 L21.4180686,3.08562429 L22.1891924,3.03604468 Z" id="Combined-Shape" fill="#C44032" fill-rule="evenodd"></path>
                            <path d="M14.2438813,3.04108355 L14.0473413,6.95105484 C13.7753217,6.96022697 13.5064578,6.97245517 13.2438813,6.9816273 L13.4435534,2.99683431 L14.2438813,3.04108355 Z" id="Combined-Shape" fill="#C44032" fill-rule="evenodd"></path>
                            <path d="M17.9746503,8.6282902 C16.2310065,8.6282902 14.7914156,7.87448757 14.536047,6.89379564 C9.37068959,7.08871771 5.60943144,7.33084991 5.60943144,7.33084991 L2.83816445,3.67454068 L0,3.67454068 L1.41982144,11.5887666 C7.9079435,15.5768722 26.0892388,14.7105605 26.0892388,14.7105605 L26.0877172,6.65326181 C24.5386548,6.65326181 22.9789683,6.66848912 21.446562,6.69742335 C21.3447104,7.77405592 19.8321592,8.62836037 17.9744908,8.62836037 L17.9746503,8.6282902 Z" id="Fill-4" fill="#0066B5" fill-rule="evenodd"></path>
                            <path d="M0,3.67454068 L2.83816445,3.67454068 L5.60943144,7.33084991 L6.72384812,13.5082431 C5.16483088,13.1343299 4.12746262,12.8410963 3.61174336,12.6285423 C3.09602409,12.4159883 2.36538345,12.0693964 1.41982144,11.5887666 L0,3.67454068 Z" id="Path-238" fill="#023C69" fill-rule="evenodd"></path>
                            <g id="Group-99" stroke-width="1" fill="none" fill-rule="evenodd" transform="translate(33.254593, 9.875328)">
                                <path d="M0.0521882621,1.64349001 C0.50913653,1.64349001 0.876556716,1.53997594 1.15444882,1.33294779 C1.43234092,1.12591965 1.60072675,0.957194269 1.6596063,0.826771654 L3.59001717e-12,0.826771654 L0.0521882621,1.64349001 Z" id="Path-239" fill="#CCCFCC"></path>
                                <path d="M0.0521882621,0.82674919 C0.435387051,0.828350911 0.764527542,0.744296884 1.03960973,0.57458711 C1.31469193,0.404877336 1.52135745,0.216948862 1.6596063,0.0108016872 L3.97726296e-12,0.0108016872 L0.0521882621,0.82674919 Z" id="Path-239" fill="#E1E4E1" transform="translate(0.829803, 0.418787) scale(1, -1) translate(-0.829803, -0.418787) "></path>
                            </g>
                            <path d="M6.68186523,13.5082431 C10.4026032,14.1817295 13.744391,14.5783694 16.7072286,14.6981627 C19.6700663,14.8179561 22.7974346,14.8179561 26.0893335,14.6981627 L26.0893335,11.5288714 C25.5627298,12.0462017 23.4498373,12.4434397 19.7506562,12.7205852 C16.051475,12.9977308 11.6364641,12.9439045 6.50562356,12.5591064 L6.68186523,13.5082431 Z" id="Path-241" fill="#00599D" fill-rule="evenodd"></path>
                        </g>
                    </g>
                    <g id="Data-Box" filter="url(#filter-17)" mask="url(#mask-2)">
                        <g transform="translate(30.000000, 27.000000)">
                            <g id="Back-Box" stroke-width="1" fill="none" transform="translate(0.000000, 0.600000)">
                                <polygon id="Inside-Box" fill="#354957" points="0.297411943 3.84910148 5.7168238 0.597779501 29.5598516 0.597779501 34.9781797 3.84910148"></polygon>
                                <polygon id="Inside-Box-Copy" fill="#182A37" points="1.49741194 3.84910148 5.99188664 1.11555556 29.3918866 1.11555556 33.7781797 3.84910148"></polygon>
                                <polygon fill="#000000" points="5.99044927 3.84910148 5.99044927 1.11555556 29.3918875 1.11555556 29.3918875 3.84910148"></polygon>
                            </g>
                            <g id="Front-Box" stroke-width="1" fill="none" transform="translate(0.018870, 4.372836)">
                                <path d="M34.9587679,26.0868414 C34.9587679,26.6829171 34.4710696,27.1706154 33.8749939,27.1706154 L1.36177408,27.1706154 C0.765156501,27.1706154 0.278000091,26.6829171 0.278000091,26.0868414 L0.278541978,0.0762655773 L34.9593098,0.0762655773 L34.9587679,26.0868414" id="Fill-681" fill="#546670"></path>
                                <path d="M33.8749939,27.1706154 C34.4710696,27.1706154 34.9587679,26.6829171 34.9587679,26.0868414 L34.9593098,1.16003957 L19.244045,1.16003957 C18.3461382,1.16003957 17.618384,1.88616815 17.618384,2.78570056 L17.618384,24.4611804 C17.618384,25.3607128 16.8906297,26.0868414 15.992723,26.0868414 L0.278000091,26.0868414 C0.278000091,26.6829171 0.765156501,27.1706154 1.36177408,27.1706154 L33.8749939,27.1706154" id="Fill-683" fill="#30404D"></path>
                                <g id="Rivets" transform="translate(2.018655, 1.623440)">
                                    <g id="Group-10" transform="translate(0.059345, 21.347175)">
                                        <path d="M2.40075,1.2 C2.40075,1.8624 1.86075,2.4 1.20075,2.4 C0.54075,2.4 0.00075,1.8624 0.00075,1.2 C0.00075,0.537 0.54075,0 1.20075,0 C1.86075,0 2.40075,0.537 2.40075,1.2" id="Fill-366" fill="#30404D"></path>
                                        <path d="M2.04525,2.04855 C2.51925,1.57995 2.51925,0.82035 2.04525,0.35175 L0.35325,2.04855 C0.82125,2.51715 1.57725,2.51715 2.04525,2.04855" id="Fill-379" fill="#182A37"></path>
                                    </g>
                                    <g id="Group-9" transform="translate(0.059345, 0.252825)">
                                        <path d="M2.4,1.2 C2.4,1.8624 1.86,2.4 1.2,2.4 C0.54,2.4 0,1.8624 0,1.2 C0,0.537 0.54,0 1.2,0 C1.86,0 2.4,0.537 2.4,1.2" id="Fill-365" fill="#30404D"></path>
                                        <path d="M2.046,2.049 C2.52,1.5798 2.52,0.8202 2.046,0.3516 L0.354,2.049 C0.822,2.517 1.578,2.517 2.046,2.049" id="Fill-380" fill="#182A37"></path>
                                    </g>
                                    <g id="Group-8" transform="translate(28.740655, 21.347175)">
                                        <path d="M2.4,1.2 C2.4,1.8624 1.86,2.4 1.2,2.4 C0.54,2.4 0,1.8624 0,1.2 C0,0.537 0.54,0 1.2,0 C1.86,0 2.4,0.537 2.4,1.2" id="Fill-381" fill="#30404D"></path>
                                        <path d="M2.046,2.0484 C2.52,1.5798 2.514,0.8202 2.046,0.3516 L0.354,2.0484 C0.822,2.517 1.578,2.517 2.046,2.0484" id="Fill-383" fill="#182A37"></path>
                                    </g>
                                    <g id="Group-7" transform="translate(28.740655, 0.252825)">
                                        <path d="M2.4,1.2 C2.4,1.8624 1.86,2.4 1.2,2.4 C0.54,2.4 0,1.8624 0,1.2 C0,0.537 0.54,0 1.2,0 C1.86,0 2.4,0.537 2.4,1.2" id="Fill-382" fill="#30404D"></path>
                                        <path d="M2.046,2.049 C2.52,1.5798 2.514,0.8202 2.046,0.3516 L0.354,2.049 C0.822,2.517 1.578,2.517 2.046,2.049" id="Fill-384" fill="#182A37"></path>
                                    </g>
                                </g>
                                <g id="Logo" transform="translate(10.118655, 5.823440)">
                                    <path d="M7.32261406,14.5786295 C3.44661406,14.5786295 0.29661406,11.5222295 0.12261406,7.69122952 C0.11661406,7.80042952 0.10461406,7.90782952 0.10461406,8.01882952 C0.10461406,12.0034295 3.33861406,15.2338295 7.32261406,15.2338295 C11.3066141,15.2338295 14.5406141,12.0034295 14.5406141,8.01882952 C14.5406141,7.90782952 14.5286141,7.80042952 14.5226141,7.69122952 C14.3486141,11.5222295 11.1986141,14.5786295 7.32261406,14.5786295" id="Fill-364" fill="#30404D"></path>
                                    <path d="M14.5406141,7.36302952 C14.5406141,11.3476295 11.3066141,14.5786295 7.32261406,14.5786295 C3.33861406,14.5786295 0.10461406,11.3476295 0.10461406,7.36302952 C0.10461406,3.37842952 3.33861406,0.148029521 7.32261406,0.148029521 C11.3066141,0.148029521 14.5406141,3.37842952 14.5406141,7.36302952" id="Fill-367" fill="#6E828F"></path>
                                    <g id="Microsoft_Azure" transform="translate(2.448646, 2.662619)">
                                        <path d="M9.57880859,7.59207349 L9.57880859,7.89325317 L2.39470215,7.8168794 L2.39470215,7.51569972 L9.57880859,7.59207349 Z M6.79154622,7.00851766 L4.52998462,4.34518872 L4.52998462,4.04400904 L7.02447681,6.9816488 L6.79154622,7.00851766 Z" id="path7291" fill="#30404D"></path>
                                        <path d="M2.01616501e-13,6.90535567 L2.05546757,6.69549096 L5.66745319,4.54747351e-13 L5.66745319,0.301179676 L2.05546757,6.99667064 L0,7.20653535 L0,6.90535567 Z" id="path7293" fill="#30404D"></path>
                                        <polygon id="path7291-copy" fill="#ADBDC4" points="5.946848 1.14455562 4.52998462 4.04400904 7.02447681 6.9816488 2.39470215 7.51569972 9.57880859 7.59207349"></polygon>
                                        <polygon id="path7293-copy" fill="#ADBDC4" points="5.66745319 0 2.41467711 2.76596137 0 6.90535567 2.05546757 6.69549096"></polygon>
                                    </g>
                                </g>
                            </g>
                            <polygon id="Path-228" fill="#4D5C65" points="0.297411943 4.8 5.73564443 1.1977795 29.5598516 1.1977795 35.0315953 4.8"></polygon>
                        </g>
                    </g>
                </g>
                <g id="Azure-Border" stroke="#0078D4" stroke-width="4">
                    <rect x="2" y="2" width="96" height="96" rx="48"></rect>
                </g>
            </g>
        </g>
    </g>
</svg>