<svg width="100" height="100" viewBox="0 0 100 100" fill="none" xmlns="http://www.w3.org/2000/svg">
<g clip-path="url(#clip0)">
<path d="M49.6401 96.5214C40.382 96.5214 31.3317 93.776 23.6339 88.6325C15.936 83.4889 9.93624 76.1782 6.3933 67.6248C2.85036 59.0714 1.92337 49.6595 3.72954 40.5792C5.53571 31.499 9.99394 23.1582 16.5404 16.6117C23.0869 10.0652 31.4277 5.607 40.5079 3.80083C49.5882 1.99466 59.0001 2.92165 67.5535 6.46459C76.1069 10.0075 83.4176 16.0073 88.5612 23.7051C93.7047 31.403 96.4501 40.4532 96.4501 49.7114C96.4505 55.8587 95.24 61.9459 92.8878 67.6253C90.5355 73.3047 87.0875 78.4652 82.7407 82.812C78.3939 87.1588 73.2335 90.6068 67.554 92.9591C61.8746 95.3113 55.7874 96.5218 49.6401 96.5214V96.5214Z" fill="url(#paint0_linear)"/>
<path fill-rule="evenodd" clip-rule="evenodd" d="M95.54 49.7113C95.54 58.7894 92.848 67.6637 87.8045 75.212C82.7609 82.7602 75.5923 88.6433 67.2052 92.1173C58.818 95.5914 49.5891 96.5004 40.6854 94.7293C31.7816 92.9583 23.603 88.5867 17.1838 82.1675C10.7646 75.7483 6.39302 67.5697 4.62196 58.6659C2.85089 49.7622 3.75987 40.5332 7.23393 32.1461C10.708 23.759 16.5911 16.5904 24.1393 11.5468C31.6875 6.50327 40.5618 3.81128 49.64 3.81128C55.6677 3.81126 61.6363 4.99848 67.2052 7.30516C72.774 9.61185 77.834 12.9928 82.0963 17.255C86.3585 21.5172 89.7394 26.5772 92.0461 32.1461C94.3528 37.7149 95.54 43.6836 95.54 49.7113V49.7113ZM49.64 0.0712894C59.4579 0.0712894 69.0552 2.98263 77.2185 8.43714C85.3818 13.8917 91.7442 21.6444 95.5014 30.7149C99.2585 39.7854 100.242 49.7664 98.3262 59.3956C96.4108 69.0248 91.6831 77.8698 84.7408 84.8121C77.7985 91.7544 68.9535 96.4821 59.3243 98.3975C49.6951 100.313 39.7141 99.3298 30.6436 95.5727C21.5731 91.8155 13.8204 85.453 8.36584 77.2898C2.91133 69.1265 -1.61629e-06 59.5291 3.61524e-07 49.7113C-0.000786426 43.1922 1.28265 36.7369 3.77702 30.7139C6.27138 24.691 9.92781 19.2184 14.5375 14.6087C19.1471 9.99909 24.6197 6.34267 30.6427 3.8483C36.6656 1.35394 43.121 0.0705013 49.64 0.0712894V0.0712894Z" fill="#F2F1F0"/>
<path fill-rule="evenodd" clip-rule="evenodd" d="M92.7296 49.7118C92.7296 58.2342 90.2024 66.5652 85.4676 73.6514C80.7328 80.7375 74.0031 86.2604 66.1294 89.5218C58.2558 92.7832 49.5918 93.6365 41.2332 91.9739C32.8745 90.3112 25.1966 86.2073 19.1704 80.1811C13.1441 74.1548 9.0402 66.4769 7.37756 58.1183C5.71493 49.7596 6.56825 41.0957 9.82963 33.222C13.091 25.3483 18.614 18.6186 25.7001 13.8838C32.7862 9.14902 41.1172 6.62184 49.6396 6.62184C55.2984 6.62149 60.9018 7.73581 66.1298 9.90117C71.3579 12.0665 76.1083 15.2405 80.1096 19.2418C84.1109 23.2432 87.2849 27.9935 89.4503 33.2216C91.6156 38.4497 92.7299 44.0531 92.7296 49.7118ZM49.6396 2.88184C58.9017 2.88184 67.9558 5.62837 75.657 10.7741C83.3581 15.9199 89.3604 23.2337 92.9049 31.7908C96.4493 40.3478 97.3767 49.7638 95.5698 58.8479C93.7628 67.932 89.3027 76.2764 82.7534 82.8256C76.2041 89.3749 67.8598 93.8351 58.7757 95.642C49.6916 97.449 40.2756 96.5216 31.7185 92.9771C23.1615 89.4327 15.8476 83.4303 10.7019 75.7292C5.55613 68.028 2.8096 58.9739 2.8096 49.7118C2.81079 37.2921 7.74504 25.3814 16.5271 16.5993C25.3092 7.81727 37.2199 2.88303 49.6396 2.88184V2.88184Z" fill="#0078D4"/>
<path fill-rule="evenodd" clip-rule="evenodd" d="M92.7295 49.7109C92.7295 58.2333 90.2023 66.5643 85.4675 73.6504C80.7327 80.7365 74.003 86.2595 66.1293 89.5209C58.2556 92.7822 49.5917 93.6356 41.233 91.9729C32.8744 90.3103 25.1965 86.2064 19.1702 80.1801C13.144 74.1539 9.04008 66.476 7.37744 58.1173C5.7148 49.7587 6.56813 41.0947 9.82951 33.2211C13.0909 25.3474 18.6138 18.6177 25.7 13.8829C32.7861 9.14808 41.1171 6.6209 49.6395 6.6209C55.2982 6.62056 60.9016 7.73488 66.1297 9.90023C71.3578 12.0656 76.1081 15.2396 80.1095 19.2409C84.1108 23.2422 87.2848 27.9926 89.4501 33.2207C91.6155 38.4487 92.7298 44.0521 92.7295 49.7109V49.7109ZM49.6395 2.8809C58.9016 2.8809 67.9557 5.62743 75.6568 10.7732C83.358 15.9189 89.3603 23.2328 92.9048 31.7898C96.4492 40.3469 97.3766 49.7628 95.5696 58.847C93.7627 67.9311 89.3026 76.2754 82.7533 82.8247C76.204 89.374 67.8597 93.8341 58.7756 95.6411C49.6914 97.448 40.2755 96.5206 31.7184 92.9762C23.1614 89.4317 15.8475 83.4294 10.7018 75.7283C5.55601 68.0271 2.80948 58.973 2.80948 49.7109C2.81066 37.2912 7.7449 25.3805 16.527 16.5984C25.309 7.8163 37.2197 2.88205 49.6395 2.88086V2.8809Z" fill="#0078D4"/>
<path d="M74.5664 70.8237C72.8598 70.8237 71.1915 70.3176 69.7725 69.3695C68.3535 68.4214 67.2476 67.0738 66.5945 65.4971C65.9414 63.9204 65.7705 62.1855 66.1034 60.5117C66.4364 58.8379 67.2582 57.3004 68.4649 56.0937C69.6717 54.8869 71.2091 54.0651 72.8829 53.7322C74.5567 53.3993 76.2917 53.5702 77.8684 54.2232C79.445 54.8763 80.7926 55.9823 81.7407 57.4013C82.6889 58.8203 83.1949 60.4885 83.1949 62.1951C83.1948 64.4835 82.2858 66.6782 80.6676 68.2964C79.0494 69.9145 76.8548 70.8236 74.5664 70.8237Z" fill="url(#paint1_linear)"/>
<path fill-rule="evenodd" clip-rule="evenodd" d="M78.5303 59.8023C78.3278 59.6 78.0533 59.4863 77.7671 59.4863C77.4809 59.4863 77.2064 59.6 77.004 59.8023L73.4463 63.3574L72.1612 62.0846C72.1312 62.04 72.0972 61.9982 72.0598 61.9596C71.8587 61.7583 71.5862 61.6447 71.3017 61.6435C71.0172 61.6423 70.7438 61.7535 70.5409 61.953C70.3381 62.1525 70.2223 62.424 70.2188 62.7085C70.2153 62.993 70.3243 63.2673 70.5222 63.4718L70.5092 63.4847L72.6864 65.642C72.889 65.8442 73.1635 65.9578 73.4498 65.9578C73.736 65.9578 74.0106 65.8442 74.2132 65.642L78.527 61.33L78.5303 61.3275C78.6305 61.2273 78.71 61.1085 78.7642 60.9776C78.8184 60.8468 78.8464 60.7065 78.8464 60.5649C78.8464 60.4232 78.8184 60.283 78.7642 60.1521C78.71 60.0213 78.6305 59.9024 78.5303 59.8023V59.8023Z" fill="#0078D4"/>
<path d="M59.7502 48.9648H64.7175C67.3623 48.9648 69.5015 54.888 69.5015 62.1733V62.3543C69.4639 69.5866 67.3358 75.3796 64.7175 75.3796H59.7502C62.3994 75.3796 64.5342 69.4696 64.5342 62.1711C64.5342 54.8725 62.395 48.9648 59.7502 48.9648ZM42.9079 52.8305C42.8417 52.6318 42.7534 52.4331 42.6651 52.2344C41.8262 50.2034 40.7223 48.9671 39.5081 48.9671H34.5409C35.7551 48.9671 36.8589 50.2034 37.6979 52.2344C38.85 55.4185 39.4038 58.788 39.3315 62.1733C39.4143 65.5579 38.8601 68.9279 37.6979 72.1078C36.859 74.161 35.7551 75.3973 34.5409 75.3973H39.5081C40.7223 75.3973 41.8041 74.183 42.643 72.152C43.7956 69.015 44.357 65.6915 44.2988 62.35V62.1734C44.3539 59.0037 43.8839 55.8467 42.9079 52.8305V52.8305Z" fill="url(#paint2_linear)"/>
<path d="M64.5431 62.1733C64.5431 69.4807 62.4016 75.3973 59.7524 75.3973C58.5382 75.3973 57.4344 74.161 56.5954 72.1078H59.7524C61.4082 72.1078 62.7328 67.6704 62.7328 62.1733C62.7328 56.6762 61.4082 52.2388 59.7524 52.2388H56.5954C57.4343 50.2078 58.5382 48.9715 59.7524 48.9715C62.4016 48.9671 64.5431 54.888 64.5431 62.1733ZM34.5497 48.9648C31.9027 48.9648 29.7635 54.8748 29.7635 62.1733C29.7635 69.4719 31.9071 75.3818 34.5497 75.3818C37.1923 75.3818 39.3293 69.4586 39.3293 62.1733C39.3293 54.888 37.1901 48.9648 34.5497 48.9648Z" fill="#9CEBFF"/>
<path d="M34.5497 52.2383C36.2055 52.2383 37.5323 56.6889 37.5323 62.1728C37.5323 67.6566 36.2077 72.1073 34.5497 72.1073C32.8918 72.1073 31.5649 67.6611 31.5649 62.1728C31.5649 56.6845 32.9006 52.2383 34.5497 52.2383Z" fill="#32BEDD"/>
<path d="M62.7328 62.1728C62.7328 67.6699 61.4082 72.1073 59.7524 72.1073H54.1229V72.1514H42.643C43.7957 69.0144 44.357 65.691 44.2988 62.3494V62.1728C44.3534 59.0046 43.8834 55.8491 42.9079 52.8344C42.8417 52.6357 42.7534 52.437 42.6651 52.2383H59.7524C61.4082 52.2383 62.7328 56.6934 62.7328 62.1728Z" fill="url(#paint3_linear)"/>
<path d="M49.68 13.4043L30.453 24.5503V46.8433L49.68 57.9893L68.907 46.8433V24.5503L49.68 13.4043Z" fill="url(#paint4_linear)"/>
<g opacity="0.7">
<path opacity="0.7" d="M68.767 24.6553V46.7733L49.68 57.8153V35.6973L68.767 24.6553Z" fill="#156AB3" stroke="#0078D4" stroke-width="0.17416" stroke-linejoin="round"/>
<path opacity="0.7" d="M68.767 24.6551L49.68 35.6971L30.592 24.6551L49.68 13.5781L68.767 24.6551Z" fill="#1D4A79" stroke="#0078D4" stroke-width="0.17416" stroke-linejoin="round"/>
<path opacity="0.7" d="M49.68 35.6973V57.8153L30.592 46.7733V24.6553L49.68 35.6973Z" fill="#185A97" stroke="#0078D4" stroke-width="0.17416" stroke-linejoin="round"/>
<path opacity="0.7" d="M30.592 46.7733L49.68 35.6973V57.8153L30.592 46.7733Z" fill="#1D4A79" stroke="#0078D4" stroke-width="0.17416" stroke-linejoin="round"/>
<path opacity="0.7" d="M68.767 46.7733L49.68 35.6973V57.8153L68.767 46.7733Z" fill="#185A97" stroke="#0078D4" stroke-width="0.17416" stroke-linejoin="round"/>
</g>
<path d="M57.8651 36.4289C57.6925 36.4 57.5175 36.3883 57.3426 36.394H46.51L49.6797 28.4176C49.7934 28.4513 49.91 28.4746 50.028 28.4873C50.0995 28.4928 50.1712 28.4808 50.237 28.4524L53.5808 27.3726C53.7001 27.3282 53.8074 27.2566 53.8943 27.1636L56.0887 24.7254L56.0191 23.7501L55.4966 23.2973L52.9539 26.1187L50.1673 27.0243L48.1471 25.2131L48.7392 22.3569L51.282 19.5355L50.7595 19.0479L49.7842 19.1175L47.5898 21.5557C47.5187 21.6524 47.4601 21.7577 47.4156 21.8692L46.6842 25.2827C46.6648 25.4017 46.6736 25.5236 46.7099 25.6385C46.7462 25.7534 46.809 25.8583 46.8932 25.9445C46.8932 25.9445 46.5449 26.049 46.4752 26.1535L37.8717 37.2648C37.2779 37.6692 36.7821 38.2012 36.4205 38.822C36.0589 39.4427 35.8407 40.1365 35.7818 40.8525C35.681 42.103 36.0665 43.3442 36.8582 44.3175C37.6498 45.2909 38.7864 45.9212 40.0313 46.0772V46.0772L56.4022 48.8289V48.7941C56.5763 48.8289 56.7157 48.8638 56.8898 48.8986C57.064 48.8986 57.2381 48.9334 57.4123 48.9334C58.9832 48.933 60.4966 48.3417 61.6516 47.2769C62.8067 46.2122 63.5191 44.7519 63.6472 43.1862C63.7653 41.5259 63.2248 39.8859 62.1426 38.6212C61.0604 37.3565 59.5237 36.5689 57.8651 36.4289V36.4289Z" fill="#1D4A79"/>
<path opacity="0.3" d="M40.6234 45.7288C40.6234 45.7288 36.4088 44.5445 36.4088 40.7827C36.4088 37.5782 40.7628 36.8467 40.7628 36.8467L57.6562 37.0905C57.6562 37.0905 63.0551 37.7175 63.0551 42.6636C63.0551 47.54 57.6562 48.2018 57.6562 48.2018L40.6234 45.7288Z" fill="white"/>
<path opacity="0.3" d="M40.6234 45.4504C42.9319 45.4504 44.8032 43.5791 44.8032 41.2706C44.8032 38.9622 42.9319 37.0908 40.6234 37.0908C38.315 37.0908 36.4436 38.9622 36.4436 41.2706C36.4436 43.5791 38.315 45.4504 40.6234 45.4504Z" fill="white"/>
<path opacity="0.2" d="M47.868 25.5615L49.819 26.8155L45.709 37.2295L39.195 37.0905L47.868 25.5615Z" fill="white"/>
<path opacity="0.3" d="M55.9494 45.45H58.7359C58.7987 45.4504 58.8605 45.4345 58.9155 45.404C58.9704 45.3735 59.0165 45.3294 59.0494 45.2759L60.4426 42.8377C60.4767 42.786 60.4949 42.7254 60.4949 42.6635C60.4949 42.6016 60.4767 42.541 60.4426 42.4893L59.0494 40.0511C59.0165 39.9976 58.9704 39.9535 58.9155 39.923C58.8605 39.8925 58.7987 39.8766 58.7359 39.877H55.9494C55.8866 39.8766 55.8247 39.8925 55.7698 39.923C55.7149 39.9535 55.6688 39.9976 55.6359 40.0511L54.2426 42.4893C54.2085 42.541 54.1904 42.6016 54.1904 42.6635C54.1904 42.7254 54.2085 42.786 54.2426 42.8377L55.6359 45.2759C55.6688 45.3294 55.7149 45.3735 55.7698 45.404C55.8247 45.4345 55.8866 45.4504 55.9494 45.45V45.45Z" fill="white"/>
<path d="M40.6234 45.4494C42.9318 45.4494 44.8032 43.5781 44.8032 41.2696C44.8032 38.9612 42.9318 37.0898 40.6234 37.0898C38.315 37.0898 36.4436 38.9612 36.4436 41.2696C36.4436 43.5781 38.315 45.4494 40.6234 45.4494Z" stroke="white" stroke-width="1.39327" stroke-linejoin="round"/>
<path d="M39.9268 42.6635H41.32C41.3897 42.6635 41.4246 42.6287 41.4594 42.559L42.156 41.3399C42.173 41.314 42.1821 41.2838 42.1821 41.2528C42.1821 41.2219 42.173 41.1916 42.156 41.1657L41.4594 39.9466C41.4594 39.9118 41.3897 39.877 41.32 39.877H39.9268C39.8571 39.877 39.8223 39.9118 39.7875 39.9815L39.0908 41.2006C39.0738 41.2264 39.0647 41.2567 39.0647 41.2876C39.0647 41.3186 39.0738 41.3489 39.0908 41.3747L39.7875 42.5938C39.7875 42.6287 39.8571 42.6635 39.9268 42.6635Z" fill="white"/>
<path d="M57.3426 36.393V37.7863H57.7606C58.3986 37.8335 59.0206 38.009 59.5892 38.3022C60.1577 38.5955 60.6613 39.0005 61.0696 39.493C61.6746 40.2035 62.0632 41.0724 62.1896 41.9969C62.3159 42.9214 62.1746 43.8628 61.7824 44.7095C61.3902 45.5561 60.7636 46.2727 59.9767 46.7742C59.1898 47.2757 58.2757 47.5412 57.3426 47.5392H56.9246C56.2866 47.492 55.6647 47.3165 55.0961 47.0232C54.5275 46.7299 54.0239 46.3249 53.6156 45.8324C53.0107 45.122 52.622 44.253 52.4957 43.3285C52.3693 42.404 52.5106 41.4627 52.9028 40.616C53.295 39.7693 53.9217 39.0528 54.7085 38.5513C55.4954 38.0498 56.4095 37.7843 57.3426 37.7863V36.393ZM57.3426 36.393C55.725 36.3944 54.1706 37.0217 53.0052 38.1435C51.8398 39.2653 51.1537 40.7946 51.0906 42.411C51.0276 44.0274 51.5925 45.6055 52.6671 46.8147C53.7416 48.0238 55.2424 48.7703 56.855 48.8976C57.0292 48.8976 57.2033 48.9324 57.3775 48.9324C58.9951 48.9311 60.5494 48.3038 61.7149 47.182C62.8803 46.0601 63.5664 44.5309 63.6295 42.9144C63.6925 41.298 63.1276 39.72 62.053 38.5108C60.9785 37.3016 59.4777 36.5552 57.8651 36.4279C57.6925 36.3989 57.5175 36.3873 57.3426 36.393H57.3426Z" fill="white"/>
<path d="M58.5617 40.5736L59.7808 42.6635L58.5617 44.7534H56.1583L54.9392 42.6635L56.1583 40.5736H58.5617ZM58.7359 39.877H55.9493C55.8865 39.8766 55.8247 39.8925 55.7698 39.923C55.7149 39.9535 55.6688 39.9976 55.6359 40.0511L54.2426 42.4894C54.2085 42.5411 54.1903 42.6016 54.1903 42.6635C54.1903 42.7254 54.2085 42.786 54.2426 42.8377L55.6359 45.2759C55.6688 45.3294 55.7149 45.3735 55.7698 45.404C55.8247 45.4345 55.8865 45.4504 55.9493 45.4501H58.7359C58.7987 45.4504 58.8605 45.4345 58.9154 45.404C58.9703 45.3735 59.0165 45.3294 59.0494 45.2759L60.4426 42.8377C60.4767 42.786 60.4949 42.7254 60.4949 42.6635C60.4949 42.6016 60.4767 42.5411 60.4426 42.4894L59.0494 40.0511C59.0165 39.9976 58.9703 39.9535 58.9154 39.923C58.8605 39.8925 58.7987 39.8767 58.7359 39.877V39.877Z" fill="white"/>
<path d="M40.1009 45.415L56.4718 48.1667" stroke="white" stroke-width="1.39327" stroke-miterlimit="10"/>
<path d="M57.3426 37.0898H40.6234" stroke="white" stroke-width="1.39327" stroke-miterlimit="10"/>
<path d="M38.3942 37.7171L47.0673 26.6058C47.2341 26.4034 47.4742 26.2752 47.7352 26.2491C47.9962 26.223 48.2569 26.3011 48.4605 26.4665L48.8785 26.8497C49.0259 26.9746 49.1292 27.1437 49.1731 27.3319C49.217 27.5201 49.1992 27.7174 49.1223 27.8947L45.4998 37.0902" stroke="white" stroke-width="1.39327" stroke-linejoin="round"/>
<path d="M56.1235 23.6798L55.601 23.1922L53.0583 26.0135L50.2717 26.9192L48.2863 25.1079L48.8785 22.2517L51.4212 19.4303L50.8639 18.9775L49.8886 19.0472L47.6942 21.4854C47.6231 21.5821 47.5645 21.6874 47.52 21.7989L46.7886 25.2124C46.7692 25.3314 46.778 25.4532 46.8143 25.5682C46.8506 25.6831 46.9134 25.7879 46.9976 25.8742L49.61 28.2079C49.7368 28.3157 49.8965 28.3771 50.0628 28.3821C50.1343 28.3876 50.206 28.3757 50.2718 28.3473L53.6156 27.2675C53.7349 27.223 53.8422 27.1515 53.9291 27.0585L56.1235 24.6203L56.1235 23.6798Z" fill="white" stroke="white" stroke-width="0.34832" stroke-miterlimit="10"/>
<path opacity="0.2" d="M64.7175 48.9648H59.7502C60.1184 48.9912 60.4763 49.098 60.7987 49.2778C61.1211 49.4576 61.4001 49.7059 61.616 50.0053C61.3999 49.7071 61.1211 49.46 60.7991 49.2814C60.4771 49.1027 60.1198 48.9969 59.7525 48.9715C58.5382 48.9715 57.4344 50.2078 56.5955 52.2389H42.6669L42.6651 52.2345C41.8262 50.2034 40.7223 48.967 39.5081 48.967H34.5654L34.5497 48.9648C34.0976 49.0147 33.6641 49.1723 33.2857 49.4246C32.9072 49.6768 32.5949 50.0163 32.375 50.4144L49.6796 60.4466L61.3084 53.7049C60.8561 52.7812 60.3251 52.2389 59.7524 52.2389C60.3257 52.2389 60.8573 52.7803 61.31 53.704L66.9178 50.4529C66.6984 50.0457 66.3836 49.6976 66.0005 49.4385C65.6173 49.1794 65.1771 49.0169 64.7175 48.9648V48.9648ZM34.8083 49.001C34.8728 49.0065 34.9368 49.0155 35.0003 49.0278C34.9368 49.0155 34.8728 49.0065 34.8083 49.001V49.001ZM35.2775 49.1341C35.3366 49.1592 35.3964 49.178 35.4548 49.2089C35.3964 49.178 35.3366 49.1592 35.2775 49.1341V49.1341ZM35.7095 49.3732C35.7727 49.4167 35.8362 49.4572 35.8984 49.5076C35.8362 49.4572 35.7727 49.4167 35.7094 49.3732H35.7095ZM36.1263 49.7164C36.1942 49.7821 36.262 49.8473 36.3285 49.9212C36.262 49.8473 36.1941 49.7821 36.1262 49.7164H36.1263ZM36.5284 50.1613C36.6007 50.2525 36.6723 50.3461 36.7425 50.4467C36.6722 50.3461 36.6006 50.2525 36.5284 50.1613H36.5284ZM36.9144 50.7057C36.99 50.8251 37.0642 50.9498 37.1372 51.08C37.0642 50.9498 36.9899 50.825 36.9143 50.7057H36.9144ZM37.2824 51.3475C37.3597 51.4969 37.4348 51.654 37.5087 51.8155C37.4348 51.654 37.3597 51.4969 37.2824 51.3475L37.2824 51.3475ZM37.6304 52.085C37.6524 52.1364 37.6762 52.182 37.6979 52.2345C37.7088 52.2646 37.7155 52.2959 37.7263 52.3261C37.6941 52.2465 37.6635 52.1621 37.6304 52.085H37.6304Z" fill="#003067"/>
<path d="M37.0741 56.8895C36.9201 56.8106 36.75 56.7682 36.577 56.7656H15.9756C15.8247 56.7656 15.6752 56.7953 15.5358 56.8531C15.3963 56.9109 15.2696 56.9955 15.1629 57.1023C15.0561 57.209 14.9715 57.3357 14.9137 57.4752C14.856 57.6146 14.8262 57.7641 14.8262 57.915V66.4757C14.8262 66.6266 14.856 66.7761 14.9137 66.9155C14.9715 67.055 15.0561 67.1817 15.1629 67.2884C15.2696 67.3951 15.3963 67.4798 15.5358 67.5375C15.6752 67.5953 15.8247 67.625 15.9756 67.625H36.577C36.7467 67.6229 36.9137 67.5825 37.0656 67.5069C37.685 63.9951 37.6879 60.4023 37.0742 56.8895H37.0741Z" fill="url(#paint5_linear)"/>
<path d="M17.9135 59.6729H24.3691" stroke="#50E6FF" stroke-width="1.37164" stroke-miterlimit="10" stroke-linecap="round"/>
<path d="M28.2162 59.6729H31.7842" stroke="#C3F1FF" stroke-width="1.37164" stroke-miterlimit="10" stroke-linecap="round"/>
<path d="M17.9135 62.1953H28.6173" stroke="#003067" stroke-width="1.37164" stroke-miterlimit="10" stroke-linecap="round"/>
<path d="M32.3277 62.1953H34.639" stroke="white" stroke-width="1.37164" stroke-miterlimit="10" stroke-linecap="round"/>
<path d="M17.9135 64.7168H20.0583" stroke="#C3F1FF" stroke-width="1.37164" stroke-miterlimit="10" stroke-linecap="round"/>
<path d="M23.9337 64.7168H26.4884" stroke="#50E6FF" stroke-width="1.37164" stroke-miterlimit="10" stroke-linecap="round"/>
<path d="M49.68 13.4043L30.453 24.5503V46.8433L49.68 57.9893L68.907 46.8433V24.5503L49.68 13.4043Z" fill="url(#paint6_linear)"/>
<g opacity="0.7">
<path opacity="0.7" d="M68.767 24.6553V46.7733L49.68 57.8153V35.6973L68.767 24.6553Z" fill="#156AB3" stroke="#0078D4" stroke-width="0.17416" stroke-linejoin="round"/>
<path opacity="0.7" d="M68.767 24.6551L49.68 35.6971L30.592 24.6551L49.68 13.5781L68.767 24.6551Z" fill="#1D4A79" stroke="#0078D4" stroke-width="0.17416" stroke-linejoin="round"/>
<path opacity="0.7" d="M49.68 35.6973V57.8153L30.592 46.7733V24.6553L49.68 35.6973Z" fill="#185A97" stroke="#0078D4" stroke-width="0.17416" stroke-linejoin="round"/>
<path opacity="0.7" d="M30.592 46.7733L49.68 35.6973V57.8153L30.592 46.7733Z" fill="#1D4A79" stroke="#0078D4" stroke-width="0.17416" stroke-linejoin="round"/>
<path opacity="0.7" d="M68.767 46.7733L49.68 35.6973V57.8153L68.767 46.7733Z" fill="#185A97" stroke="#0078D4" stroke-width="0.17416" stroke-linejoin="round"/>
</g>
<path d="M57.8651 36.4289C57.6925 36.4 57.5175 36.3883 57.3426 36.394H46.51L49.6797 28.4176C49.7934 28.4513 49.91 28.4746 50.028 28.4873C50.0995 28.4928 50.1712 28.4808 50.237 28.4524L53.5808 27.3726C53.7001 27.3282 53.8074 27.2566 53.8943 27.1636L56.0887 24.7254L56.0191 23.7501L55.4966 23.2973L52.9539 26.1187L50.1673 27.0243L48.1471 25.2131L48.7392 22.3569L51.282 19.5355L50.7595 19.0479L49.7842 19.1175L47.5898 21.5557C47.5187 21.6524 47.4601 21.7577 47.4156 21.8692L46.6842 25.2827C46.6648 25.4017 46.6736 25.5236 46.7099 25.6385C46.7462 25.7534 46.809 25.8583 46.8932 25.9445C46.8932 25.9445 46.5449 26.049 46.4752 26.1535L37.8717 37.2648C37.2779 37.6692 36.7821 38.2012 36.4205 38.822C36.0589 39.4427 35.8407 40.1365 35.7818 40.8525C35.681 42.103 36.0665 43.3442 36.8582 44.3175C37.6498 45.2909 38.7864 45.9212 40.0313 46.0772V46.0772L56.4022 48.8289V48.7941C56.5763 48.8289 56.7157 48.8638 56.8898 48.8986C57.064 48.8986 57.2381 48.9334 57.4123 48.9334C58.9832 48.933 60.4966 48.3417 61.6516 47.2769C62.8067 46.2122 63.5191 44.7519 63.6472 43.1862C63.7653 41.5259 63.2248 39.8859 62.1426 38.6212C61.0604 37.3565 59.5237 36.5689 57.8651 36.4289V36.4289Z" fill="#1D4A79"/>
<path opacity="0.3" d="M40.6234 45.7288C40.6234 45.7288 36.4088 44.5445 36.4088 40.7827C36.4088 37.5782 40.7628 36.8467 40.7628 36.8467L57.6562 37.0905C57.6562 37.0905 63.0551 37.7175 63.0551 42.6636C63.0551 47.54 57.6562 48.2018 57.6562 48.2018L40.6234 45.7288Z" fill="white"/>
<path opacity="0.3" d="M40.6234 45.4504C42.9319 45.4504 44.8032 43.5791 44.8032 41.2706C44.8032 38.9622 42.9319 37.0908 40.6234 37.0908C38.315 37.0908 36.4436 38.9622 36.4436 41.2706C36.4436 43.5791 38.315 45.4504 40.6234 45.4504Z" fill="white"/>
<path opacity="0.2" d="M47.868 25.5615L49.819 26.8155L45.709 37.2295L39.195 37.0905L47.868 25.5615Z" fill="white"/>
<path opacity="0.3" d="M55.9494 45.45H58.7359C58.7987 45.4504 58.8605 45.4345 58.9155 45.404C58.9704 45.3735 59.0165 45.3294 59.0494 45.2759L60.4426 42.8377C60.4767 42.786 60.4949 42.7254 60.4949 42.6635C60.4949 42.6016 60.4767 42.541 60.4426 42.4893L59.0494 40.0511C59.0165 39.9976 58.9704 39.9535 58.9155 39.923C58.8605 39.8925 58.7987 39.8766 58.7359 39.877H55.9494C55.8866 39.8766 55.8247 39.8925 55.7698 39.923C55.7149 39.9535 55.6688 39.9976 55.6359 40.0511L54.2426 42.4893C54.2085 42.541 54.1904 42.6016 54.1904 42.6635C54.1904 42.7254 54.2085 42.786 54.2426 42.8377L55.6359 45.2759C55.6688 45.3294 55.7149 45.3735 55.7698 45.404C55.8247 45.4345 55.8866 45.4504 55.9494 45.45V45.45Z" fill="white"/>
<path d="M40.6234 45.4494C42.9318 45.4494 44.8032 43.5781 44.8032 41.2696C44.8032 38.9612 42.9318 37.0898 40.6234 37.0898C38.315 37.0898 36.4436 38.9612 36.4436 41.2696C36.4436 43.5781 38.315 45.4494 40.6234 45.4494Z" stroke="white" stroke-width="1.39327" stroke-linejoin="round"/>
<path d="M39.9268 42.6635H41.32C41.3897 42.6635 41.4246 42.6287 41.4594 42.559L42.156 41.3399C42.173 41.314 42.1821 41.2838 42.1821 41.2528C42.1821 41.2219 42.173 41.1916 42.156 41.1657L41.4594 39.9466C41.4594 39.9118 41.3897 39.877 41.32 39.877H39.9268C39.8571 39.877 39.8223 39.9118 39.7875 39.9815L39.0908 41.2006C39.0738 41.2264 39.0647 41.2567 39.0647 41.2876C39.0647 41.3186 39.0738 41.3489 39.0908 41.3747L39.7875 42.5938C39.7875 42.6287 39.8571 42.6635 39.9268 42.6635Z" fill="white"/>
<path d="M57.3426 36.393V37.7863H57.7606C58.3986 37.8335 59.0206 38.009 59.5892 38.3022C60.1577 38.5955 60.6613 39.0005 61.0696 39.493C61.6746 40.2035 62.0632 41.0724 62.1896 41.9969C62.3159 42.9214 62.1746 43.8628 61.7824 44.7095C61.3902 45.5561 60.7636 46.2727 59.9767 46.7742C59.1898 47.2757 58.2757 47.5412 57.3426 47.5392H56.9246C56.2866 47.492 55.6647 47.3165 55.0961 47.0232C54.5275 46.7299 54.0239 46.3249 53.6156 45.8324C53.0107 45.122 52.622 44.253 52.4957 43.3285C52.3693 42.404 52.5106 41.4627 52.9028 40.616C53.295 39.7693 53.9217 39.0528 54.7085 38.5513C55.4954 38.0498 56.4095 37.7843 57.3426 37.7863V36.393ZM57.3426 36.393C55.725 36.3944 54.1706 37.0217 53.0052 38.1435C51.8398 39.2653 51.1537 40.7946 51.0906 42.411C51.0276 44.0274 51.5925 45.6055 52.6671 46.8147C53.7416 48.0238 55.2424 48.7703 56.855 48.8976C57.0292 48.8976 57.2033 48.9324 57.3775 48.9324C58.9951 48.9311 60.5494 48.3038 61.7149 47.182C62.8803 46.0601 63.5664 44.5309 63.6295 42.9144C63.6925 41.298 63.1276 39.72 62.053 38.5108C60.9785 37.3016 59.4777 36.5552 57.8651 36.4279C57.6925 36.3989 57.5175 36.3873 57.3426 36.393H57.3426Z" fill="white"/>
<path d="M58.5617 40.5736L59.7808 42.6635L58.5617 44.7534H56.1583L54.9392 42.6635L56.1583 40.5736H58.5617ZM58.7359 39.877H55.9493C55.8865 39.8766 55.8247 39.8925 55.7698 39.923C55.7149 39.9535 55.6688 39.9976 55.6359 40.0511L54.2426 42.4894C54.2085 42.5411 54.1903 42.6016 54.1903 42.6635C54.1903 42.7254 54.2085 42.786 54.2426 42.8377L55.6359 45.2759C55.6688 45.3294 55.7149 45.3735 55.7698 45.404C55.8247 45.4345 55.8865 45.4504 55.9493 45.4501H58.7359C58.7987 45.4504 58.8605 45.4345 58.9154 45.404C58.9703 45.3735 59.0165 45.3294 59.0494 45.2759L60.4426 42.8377C60.4767 42.786 60.4949 42.7254 60.4949 42.6635C60.4949 42.6016 60.4767 42.5411 60.4426 42.4894L59.0494 40.0511C59.0165 39.9976 58.9703 39.9535 58.9154 39.923C58.8605 39.8925 58.7987 39.8767 58.7359 39.877V39.877Z" fill="white"/>
<path d="M40.1009 45.415L56.4718 48.1667" stroke="white" stroke-width="1.39327" stroke-miterlimit="10"/>
<path d="M57.3426 37.0898H40.6234" stroke="white" stroke-width="1.39327" stroke-miterlimit="10"/>
<path d="M38.3942 37.7171L47.0673 26.6058C47.2341 26.4034 47.4742 26.2752 47.7352 26.2491C47.9962 26.223 48.2569 26.3011 48.4605 26.4665L48.8785 26.8497C49.0259 26.9746 49.1292 27.1437 49.1731 27.3319C49.217 27.5201 49.1992 27.7174 49.1223 27.8947L45.4998 37.0902" stroke="white" stroke-width="1.39327" stroke-linejoin="round"/>
<path d="M56.1235 23.6798L55.601 23.1922L53.0583 26.0135L50.2717 26.9192L48.2863 25.1079L48.8785 22.2517L51.4212 19.4303L50.8639 18.9775L49.8886 19.0472L47.6942 21.4854C47.6231 21.5821 47.5645 21.6874 47.52 21.7989L46.7886 25.2124C46.7692 25.3314 46.778 25.4532 46.8143 25.5682C46.8506 25.6831 46.9134 25.7879 46.9976 25.8742L49.61 28.2079C49.7368 28.3157 49.8965 28.3771 50.0628 28.3821C50.1343 28.3876 50.206 28.3757 50.2718 28.3473L53.6156 27.2675C53.7349 27.223 53.8422 27.1515 53.9291 27.0585L56.1235 24.6203L56.1235 23.6798Z" fill="white" stroke="white" stroke-width="0.34832" stroke-miterlimit="10"/>
</g>
<defs>
<linearGradient id="paint0_linear" x1="47.8698" y1="-15.0817" x2="51.8525" y2="130.686" gradientUnits="userSpaceOnUse">
<stop stop-color="#00ABDE"/>
<stop offset="1" stop-color="#007ED8"/>
</linearGradient>
<linearGradient id="paint1_linear" x1="74.5663" y1="70.2043" x2="74.5663" y2="53.9423" gradientUnits="userSpaceOnUse">
<stop stop-color="white"/>
<stop offset="0.56" stop-color="#FBFBFB"/>
<stop offset="1" stop-color="#F2F2F2"/>
</linearGradient>
<linearGradient id="paint2_linear" x1="52.0212" y1="43.8033" x2="52.0212" y2="74.0307" gradientUnits="userSpaceOnUse">
<stop stop-color="#32BEDD"/>
<stop offset="0.067" stop-color="#3DCCE9"/>
<stop offset="0.171" stop-color="#48DBF5"/>
<stop offset="0.295" stop-color="#4EE3FD"/>
<stop offset="0.489" stop-color="#50E6FF"/>
<stop offset="0.703" stop-color="#4EE4FD"/>
<stop offset="0.828" stop-color="#48DBF6"/>
<stop offset="0.929" stop-color="#3DCDEA"/>
<stop offset="1" stop-color="#32BEDD"/>
</linearGradient>
<linearGradient id="paint3_linear" x1="52.6879" y1="49.1078" x2="52.6879" y2="76.3968" gradientUnits="userSpaceOnUse">
<stop stop-color="#198AB3"/>
<stop offset="0.025" stop-color="#1D92B9"/>
<stop offset="0.102" stop-color="#26A5C9"/>
<stop offset="0.192" stop-color="#2CB2D4"/>
<stop offset="0.307" stop-color="#30BADA"/>
<stop offset="0.531" stop-color="#31BCDC"/>
<stop offset="0.656" stop-color="#2EB5D6"/>
<stop offset="0.84" stop-color="#24A1C6"/>
<stop offset="1" stop-color="#198AB3"/>
</linearGradient>
<linearGradient id="paint4_linear" x1="49.6797" y1="57.9892" x2="49.6797" y2="13.4046" gradientUnits="userSpaceOnUse">
<stop stop-color="#1D4A79"/>
<stop offset="1" stop-color="#45CAF2"/>
</linearGradient>
<linearGradient id="paint5_linear" x1="26.1792" y1="67.625" x2="26.1792" y2="56.7656" gradientUnits="userSpaceOnUse">
<stop stop-color="#004DAE"/>
<stop offset="0.21" stop-color="#0061C4"/>
<stop offset="0.51" stop-color="#0078DD"/>
<stop offset="0.78" stop-color="#0086EC"/>
<stop offset="1" stop-color="#008BF1"/>
</linearGradient>
<linearGradient id="paint6_linear" x1="49.6797" y1="57.9892" x2="49.6797" y2="13.4046" gradientUnits="userSpaceOnUse">
<stop stop-color="#1D4A79"/>
<stop offset="1" stop-color="#45CAF2"/>
</linearGradient>
<clipPath id="clip0">
<rect width="99.2799" height="99.28" fill="white" transform="translate(0 0.0712891)"/>
</clipPath>
</defs>
</svg>
