<?xml version="1.0" encoding="utf-8"?>
<!-- Generator: Adobe Illustrator 19.0.0, SVG Export Plug-In . SVG Version: 6.00 Build 0)  -->
<svg version="1.1" id="Capa_1" xmlns="http://www.w3.org/2000/svg" xmlns:xlink="http://www.w3.org/1999/xlink" x="0px" y="0px"
	 viewBox="32 -181.4 563.4 563.4" style="enable-background:new 32 -181.4 563.4 563.4;" xml:space="preserve">
<style type="text/css">
	.st0{fill:#FFFFFF;}
</style>
<path class="st0" d="M312.8,133.1c83.3,0,150.8-67.5,150.8-150.8S396.1-168,312.8-168S162-100.5,162-17.7S229.5,133.1,312.8,133.1z
	 M312.8-128.7c61.1,0,111,50,111,111s-50,111-111,111s-111-50-111-111S251.7-128.7,312.8-128.7z"/>
<path class="st0" d="M51,368.6h523.6c11.1,0,19.9-8.8,19.9-19.9c0-104.1-84.7-189.2-189.2-189.2h-185
	c-104.1,0-189.2,84.7-189.2,189.2C31.1,359.8,39.9,368.6,51,368.6z M220.3,199.3h185c75.9,0,138.3,56.4,148,129.5H72.2
	C82,256.2,144.4,199.3,220.3,199.3z"/>
</svg>
